<?xml version="1.0" standalone="no"?>
<!DOCTYPE svg PUBLIC "-//W3C//DTD SVG 20010904//EN"
 "http://www.w3.org/TR/2001/REC-SVG-20010904/DTD/svg10.dtd">
<svg version="1.0" xmlns="http://www.w3.org/2000/svg"
 width="1242.000000pt" height="1242.000000pt" viewBox="0 0 1242.000000 1242.000000"
 preserveAspectRatio="xMidYMid meet">
<metadata>
Created by potrace 1.14, written by Peter Selinger 2001-2017
</metadata>
<g transform="translate(0.000000,1242.000000) scale(0.100000,-0.100000)"
fill="#000000" stroke="none">
<path d="M5915 11711 c-103 -26 -155 -95 -155 -209 0 -143 116 -238 247 -203
89 24 143 100 143 201 0 108 -47 179 -134 205 -54 16 -57 16 -101 6z m96 -67
c18 -9 38 -32 50 -57 49 -109 -4 -238 -99 -241 -82 -2 -139 79 -129 183 11
107 92 160 178 115z"/>
<path d="M6255 11483 c-3 -131 -7 -260 -8 -288 -2 -49 -1 -50 29 -53 39 -4 44
10 44 132 l0 90 28 -26 c54 -51 147 -54 215 -6 44 31 77 110 77 183 -1 169
-144 258 -274 170 -20 -14 -39 -25 -41 -25 -3 0 -5 14 -5 30 0 26 -3 30 -29
30 l-29 0 -7 -237z m270 144 c60 -60 60 -170 1 -235 -30 -32 -38 -36 -86 -36
-47 0 -56 4 -81 32 -27 30 -29 39 -29 108 0 41 5 85 11 97 21 42 61 67 108 67
35 0 49 -6 76 -33z"/>
<path d="M5627 11683 c-23 -4 -40 -23 -92 -104 -36 -54 -69 -99 -74 -99 -5 0
-14 38 -21 85 l-12 85 -34 0 c-25 0 -34 -4 -34 -16 0 -35 52 -379 58 -386 4
-3 20 -4 36 -1 31 6 31 7 9 146 l-6 37 45 0 c56 0 86 -22 133 -96 29 -45 40
-54 63 -54 42 0 44 8 15 59 -56 98 -82 122 -156 145 -15 5 -8 19 46 93 35 49
66 94 71 101 7 12 5 13 -47 5z"/>
<path d="M6806 11679 c-2 -8 -9 -48 -15 -90 -18 -131 -64 -235 -106 -241 -17
-3 -21 -15 -30 -88 -10 -84 -10 -85 13 -94 13 -4 25 -6 28 -3 2 2 9 30 14 62
5 32 11 59 13 61 4 4 213 -22 255 -32 22 -5 24 -9 20 -67 -3 -60 -2 -62 23
-65 25 -3 27 0 33 50 4 29 10 70 13 91 5 33 3 37 -16 37 -11 0 -21 1 -21 3 0
1 9 72 20 157 11 85 20 164 20 176 0 19 -9 22 -116 33 -65 7 -123 15 -130 18
-8 3 -16 -1 -18 -8z m184 -76 c6 -7 -23 -280 -31 -287 -7 -6 -164 16 -173 24
-5 5 0 23 12 42 23 37 47 119 57 192 l7 49 60 -6 c33 -3 64 -9 68 -14z"/>
<path d="M7325 11603 c-11 -2 -30 -6 -42 -9 -13 -2 -38 -18 -57 -34 -81 -72
-101 -221 -39 -297 46 -58 87 -78 160 -78 52 0 68 4 105 30 101 71 129 228 56
320 -35 45 -128 80 -183 68z m110 -86 c63 -63 53 -182 -21 -247 -56 -49 -142
-35 -176 28 -22 42 -16 131 12 180 29 51 60 71 114 72 30 0 45 -7 71 -33z"/>
<path d="M4856 11540 c-49 -25 -66 -39 -66 -57 0 -21 29 -27 48 -10 29 25 86
39 115 28 59 -23 40 -99 -30 -121 -51 -17 -52 -17 -46 -40 5 -17 11 -19 64
-13 72 7 109 -12 109 -55 0 -55 -82 -99 -157 -86 -30 6 -33 4 -33 -20 0 -32
30 -41 98 -31 141 21 218 131 143 206 -20 19 -40 29 -60 29 -37 0 -38 2 -6 34
38 38 35 96 -6 130 -38 33 -114 35 -173 6z"/>
<path d="M7686 11468 c-9 -29 -35 -116 -59 -193 -46 -144 -46 -145 0 -159 20
-6 24 0 49 79 15 47 31 85 37 85 5 0 47 -12 93 -26 76 -23 84 -28 78 -46 -7
-23 -44 -152 -44 -154 0 -4 63 -24 65 -22 12 13 116 372 111 383 -3 8 -15 15
-26 15 -11 0 -23 0 -27 1 -4 0 -15 -28 -26 -63 -10 -35 -23 -67 -27 -72 -8 -8
-100 12 -161 35 l-26 10 23 77 c13 42 24 78 24 79 0 1 -61 23 -66 23 -1 0 -10
-24 -18 -52z"/>
<path d="M8208 11499 c-21 -12 -24 -49 -6 -67 18 -18 56 -14 68 7 14 27 13 37
-6 55 -18 18 -32 20 -56 5z"/>
<path d="M4003 11412 c-73 -32 -133 -62 -133 -68 0 -9 78 -194 130 -308 11
-25 20 -47 20 -50 0 -3 16 -39 34 -81 l35 -75 64 24 c139 52 207 121 207 208
0 76 -37 138 -99 164 -46 19 -96 17 -161 -7 -30 -11 -63 -22 -72 -26 -13 -4
-23 8 -43 52 -14 32 -25 63 -25 70 0 7 45 32 100 55 55 23 103 46 106 51 8 14
-6 49 -19 48 -7 -1 -72 -26 -144 -57z m255 -277 c26 -28 32 -43 32 -80 0 -39
-5 -50 -38 -82 -39 -40 -108 -71 -122 -57 -9 10 -90 203 -90 214 0 7 62 36 95
44 46 11 90 -3 123 -39z"/>
<path d="M4492 11433 c-99 -49 -127 -180 -64 -303 24 -45 88 -90 139 -97 46
-6 128 17 180 51 37 24 38 26 20 50 -12 16 -16 15 -62 -10 -36 -21 -63 -28
-103 -29 -49 0 -56 3 -88 37 -19 21 -34 44 -34 51 0 7 52 30 130 55 71 24 132
47 135 52 10 16 -51 115 -84 137 -41 28 -120 31 -169 6z m126 -49 c12 -8 29
-28 37 -44 l15 -28 -93 -31 c-50 -17 -98 -31 -105 -31 -19 0 -15 81 6 106 36
45 98 57 140 28z"/>
<path d="M8091 11198 c-80 -205 -81 -213 -45 -222 15 -4 30 -3 35 1 8 9 139
348 139 362 0 8 -32 21 -55 21 -6 0 -39 -73 -74 -162z"/>
<path d="M8337 11248 c-8 -18 -27 -60 -42 -93 -15 -33 -45 -98 -66 -144 -21
-46 -39 -86 -39 -88 0 -2 39 -23 88 -46 74 -36 96 -42 150 -42 57 0 66 3 88
28 34 39 32 92 -3 129 l-27 28 27 0 c38 0 73 26 86 62 22 63 -39 127 -167 177
-70 28 -77 27 -95 -11z m151 -70 c55 -34 62 -84 16 -109 -20 -10 -33 -10 -77
4 -81 26 -81 26 -52 90 24 55 25 56 52 46 15 -6 43 -20 61 -31z m-105 -139
c63 -32 87 -58 87 -95 0 -17 -7 -37 -16 -45 -23 -19 -84 -15 -138 9 l-47 21
17 38 c9 21 20 50 26 66 12 33 17 33 71 6z"/>
<path d="M9703 10425 c0 -8 4 -12 9 -9 5 3 6 10 3 15 -9 13 -12 11 -12 -6z"/>
<path d="M3010 10406 c0 -2 7 -9 15 -16 13 -11 14 -10 9 4 -5 14 -24 23 -24
12z"/>
<path d="M2990 10396 c0 -2 8 -10 18 -17 15 -13 16 -12 3 4 -13 16 -21 21 -21
13z"/>
<path d="M9629 10398 c-5 -9 -4 -56 1 -52 5 6 8 54 3 54 -2 0 -4 -1 -4 -2z"/>
<path d="M3273 10365 c0 -8 4 -12 9 -9 5 3 6 10 3 15 -9 13 -12 11 -12 -6z"/>
<path d="M6169 10328 c-41 -65 -1 -197 64 -213 62 -16 117 54 116 145 -1 35
-3 39 -8 20 -6 -22 -8 -23 -14 -7 -4 10 -11 16 -16 13 -5 -4 -16 1 -25 10 -9
8 -20 12 -26 9 -5 -3 -10 -1 -10 5 0 18 -29 42 -41 34 -8 -4 -9 -3 -5 4 4 7 2
12 -4 12 -5 0 -20 -15 -31 -32z"/>
<path d="M9576 10307 c3 -10 9 -15 12 -12 3 3 0 11 -7 18 -10 9 -11 8 -5 -6z"/>
<path d="M9965 10230 c3 -5 11 -10 16 -10 6 0 7 5 4 10 -3 6 -11 10 -16 10 -6
0 -7 -4 -4 -10z"/>
<path d="M6714 10171 c-130 -50 -190 -102 -233 -201 -46 -107 -50 -115 -50
-98 -1 11 -7 15 -21 11 -36 -9 -153 26 -188 57 -19 16 -41 32 -50 35 -10 3
-27 21 -40 40 -12 19 -27 35 -33 35 -5 0 -7 5 -4 10 3 6 11 10 16 10 6 0 7 -4
4 -10 -3 -5 -3 -10 2 -11 4 0 31 -2 58 -4 l50 -3 -65 23 c-36 12 -92 38 -125
57 -77 46 -122 58 -215 58 l-75 -1 53 -18 c121 -42 242 -156 303 -286 20 -44
51 -134 69 -200 42 -160 73 -250 128 -370 60 -133 118 -221 193 -294 64 -63
86 -73 51 -24 -81 116 -168 376 -147 442 10 33 39 25 97 -27 104 -94 199 -149
288 -167 35 -7 35 -7 -15 26 -269 179 -384 540 -242 763 49 78 162 139 282
154 42 5 46 7 25 13 -36 10 -38 10 -116 -20z"/>
<path d="M9641 10054 c0 -11 3 -14 6 -6 3 7 2 16 -1 19 -3 4 -6 -2 -5 -13z"/>
<path d="M5621 9984 c0 -11 3 -14 6 -6 3 7 2 16 -1 19 -3 4 -6 -2 -5 -13z"/>
<path d="M5600 9908 c-6 -29 -13 -84 -15 -123 -4 -57 -1 -47 14 50 20 127 21
162 1 73z"/>
<path d="M7061 9937 c0 -10 -15 -32 -31 -49 -29 -28 -32 -29 -44 -13 -12 17
-13 17 -19 1 -5 -11 -3 -15 5 -10 7 5 8 3 3 -5 -5 -9 -11 -9 -17 -3 -6 6 -16
8 -23 5 -7 -2 -15 4 -18 14 -4 16 -5 15 -6 -2 0 -12 4 -26 11 -33 41 -41 160
36 145 94 -4 18 -5 18 -6 1z"/>
<path d="M9707 9929 c7 -7 15 -10 18 -7 3 3 -2 9 -12 12 -14 6 -15 5 -6 -5z"/>
<path d="M7190 9841 c-106 -70 -184 -154 -204 -221 -9 -30 -16 -64 -16 -77 0
-14 -4 -21 -10 -18 -5 3 -10 -1 -10 -9 0 -22 -8 -20 -31 7 -13 15 -17 17 -13
5 3 -10 -2 -25 -12 -35 -17 -17 -17 -17 -12 4 4 16 2 20 -8 16 -29 -11 -16
-36 73 -131 78 -84 80 -89 60 -185 -9 -45 -17 -109 -16 -142 1 -60 4 -58 23
23 5 17 13 32 18 32 6 0 8 -10 5 -22 -21 -87 -29 -113 -35 -118 -12 -9 -35
-40 -30 -40 3 0 22 13 43 30 20 16 41 27 46 24 5 -3 9 2 9 10 0 21 12 20 43
-4 30 -24 97 -53 104 -46 3 3 -6 8 -21 12 -14 3 -23 11 -19 17 3 6 1 7 -6 3
-6 -4 -23 2 -36 13 -14 10 -21 22 -16 25 5 4 12 2 16 -4 10 -16 25 -12 19 5
-4 8 -10 13 -14 10 -4 -3 -10 5 -13 17 -5 19 -8 20 -23 7 -15 -12 -17 -12 -9
0 8 13 10 168 3 201 -2 8 -18 43 -35 78 -18 35 -27 62 -21 60 6 -2 18 -24 28
-48 16 -42 20 -44 84 -62 108 -30 160 -70 217 -168 32 -57 32 -57 5 26 -14 43
-86 170 -86 152 0 -4 -12 6 -27 21 -16 15 -59 45 -98 65 -38 21 -85 49 -104
62 -19 13 -39 20 -44 17 -5 -3 -3 -9 4 -14 8 -5 10 -9 5 -9 -5 0 -3 -7 4 -15
7 -8 8 -15 3 -15 -17 0 -33 46 -20 59 8 8 5 16 -8 31 -22 24 -22 94 0 146 28
67 146 174 250 228 32 16 43 26 30 26 -12 0 -54 -22 -95 -49z m-201 -348 c6
-11 6 -24 0 -35 -6 -10 -7 -24 -4 -31 4 -6 -1 -3 -9 7 -9 11 -16 25 -16 30 0
6 4 5 9 -2 7 -11 9 -11 14 2 6 14 -4 21 -25 17 -4 0 -5 6 -2 14 8 20 21 19 33
-2z m38 -315 c-2 -13 -4 -5 -4 17 -1 22 1 32 4 23 2 -10 2 -28 0 -40z"/>
<path d="M5371 9864 c0 -11 3 -14 6 -6 3 7 2 16 -1 19 -3 4 -6 -2 -5 -13z"/>
<path d="M10497 9859 c7 -7 15 -10 18 -7 3 3 -2 9 -12 12 -14 6 -15 5 -6 -5z"/>
<path d="M10370 9850 c-9 -6 -10 -10 -3 -10 6 0 15 5 18 10 8 12 4 12 -15 0z"/>
<path d="M2379 9823 c-13 -16 -12 -17 4 -4 9 7 17 15 17 17 0 8 -8 3 -21 -13z"/>
<path d="M5383 9780 c0 -25 2 -35 4 -22 2 12 2 32 0 45 -2 12 -4 2 -4 -23z"/>
<path d="M10345 9798 l-20 -21 23 12 c12 6 22 16 22 21 0 13 -2 12 -25 -12z"/>
<path d="M2066 9753 c-6 -14 -5 -15 5 -6 7 7 10 15 7 18 -3 3 -9 -2 -12 -12z"/>
<path d="M5371 9713 c0 -13 -5 -23 -10 -23 -5 0 -12 -8 -15 -17 -6 -15 -3 -14
14 3 13 13 20 29 17 40 -4 16 -5 15 -6 -3z"/>
<path d="M5571 9684 c0 -11 3 -14 6 -6 3 7 2 16 -1 19 -3 4 -6 -2 -5 -13z"/>
<path d="M5145 9585 c47 -29 122 -33 170 -9 17 8 21 11 10 8 -55 -18 -122 -16
-163 5 -56 29 -66 26 -17 -4z"/>
<path d="M2127 9558 c14 -15 33 -16 33 -2 0 3 -5 2 -12 -2 -7 -5 -9 -2 -6 7 4
10 -1 15 -13 15 -17 0 -17 -2 -2 -18z"/>
<path d="M6845 9530 c3 -5 8 -10 11 -10 2 0 4 5 4 10 0 6 -5 10 -11 10 -5 0
-7 -4 -4 -10z"/>
<path d="M7328 9393 c6 -2 18 -2 25 0 6 3 1 5 -13 5 -14 0 -19 -2 -12 -5z"/>
<path d="M7643 9355 c0 -22 2 -30 4 -17 2 12 2 30 0 40 -3 9 -5 -1 -4 -23z"/>
<path d="M10690 9346 c0 -2 8 -10 18 -17 15 -13 16 -12 3 4 -13 16 -21 21 -21
13z"/>
<path d="M1740 9250 c-6 -11 -9 -20 -8 -20 2 0 11 9 21 20 9 11 13 20 7 20 -5
0 -14 -9 -20 -20z"/>
<path d="M10740 9181 c0 -6 4 -13 10 -16 6 -3 7 1 4 9 -7 18 -14 21 -14 7z"/>
<path d="M5168 9125 c-15 -70 -145 -156 -240 -159 -31 -1 -43 -4 -37 -11 20
-20 94 -9 157 25 76 40 138 117 130 158 -3 11 -6 6 -10 -13z"/>
<path d="M5493 9076 c-82 -120 -162 -185 -341 -279 -30 -16 -52 -31 -49 -33 8
-9 117 50 214 115 94 63 148 119 197 204 40 69 28 66 -21 -7z"/>
<path d="M7790 9029 c-22 -18 -22 -19 -3 -10 12 6 25 16 28 21 9 15 3 12 -25
-11z"/>
<path d="M7467 9008 c-16 -35 -36 -110 -37 -139 0 -13 66 -59 84 -59 2 0 0 18
-4 40 -5 27 -3 45 6 58 14 20 13 46 -1 59 -4 4 -5 3 -1 -4 3 -6 2 -14 -4 -18
-5 -3 -10 0 -10 9 0 8 -3 23 -6 33 -5 15 -4 15 5 3 15 -21 13 0 -3 28 l-13 24
-16 -34z"/>
<path d="M1535 9009 c-11 -16 -1 -19 13 -3 7 8 8 14 3 14 -5 0 -13 -5 -16 -11z"/>
<path d="M1837 9003 c-3 -5 4 -15 16 -23 21 -12 21 -12 7 6 -8 10 -15 20 -16
22 -1 2 -4 -1 -7 -5z"/>
<path d="M5571 8958 c-9 -24 1 -59 37 -138 14 -30 21 -63 20 -97 -2 -52 -2
-52 -22 -35 -23 20 -14 0 14 -33 17 -19 17 -31 5 -175 -7 -85 -16 -168 -20
-185 -4 -20 -3 -25 3 -15 14 24 33 149 40 274 8 122 -3 369 -16 392 -4 8 -7
-16 -5 -53 l3 -68 -20 40 c-12 24 -19 55 -17 78 3 41 -9 49 -22 15z"/>
<path d="M7558 8953 c-10 -2 -18 -9 -18 -14 0 -6 10 -5 23 2 37 20 36 23 -5
12z"/>
<path d="M5847 8845 c19 -29 20 -65 3 -65 -5 0 -8 6 -6 13 1 6 1 9 -1 4 -3 -4
-9 -5 -14 -1 -34 20 29 -64 110 -148 49 -51 83 -76 66 -48 -3 6 -2 10 3 10 13
0 25 32 14 39 -5 3 -46 51 -91 106 -94 113 -113 134 -84 90z m30 -97 c-3 -8
-6 -5 -6 6 -1 11 2 17 5 13 3 -3 4 -12 1 -19z"/>
<path d="M10610 8839 c0 -5 5 -7 10 -4 6 3 10 8 10 11 0 2 -4 4 -10 4 -5 0
-10 -5 -10 -11z"/>
<path d="M1500 8831 c0 -6 4 -13 10 -16 6 -3 7 1 4 9 -7 18 -14 21 -14 7z"/>
<path d="M5797 8819 c7 -7 15 -10 18 -7 3 3 -2 9 -12 12 -14 6 -15 5 -6 -5z"/>
<path d="M1560 8816 c0 -2 8 -10 18 -17 15 -13 16 -12 3 4 -13 16 -21 21 -21
13z"/>
<path d="M1560 8781 c0 -5 7 -12 16 -15 14 -5 15 -4 4 9 -14 17 -20 19 -20 6z"/>
<path d="M10938 8783 c7 -3 16 -2 19 1 4 3 -2 6 -13 5 -11 0 -14 -3 -6 -6z"/>
<path d="M7724 8755 c-10 -8 -28 -15 -38 -15 -15 0 -17 -3 -9 -11 12 -12 73
14 73 31 0 13 -3 13 -26 -5z"/>
<path d="M5046 8745 c-11 -8 -16 -15 -10 -15 5 0 18 7 28 15 11 8 16 15 10 15
-5 0 -18 -7 -28 -15z"/>
<path d="M3661 8655 l-84 -83 55 -61 c69 -77 116 -166 101 -191 -10 -14 -2
-26 47 -75 40 -39 64 -56 74 -52 30 12 29 36 -5 78 l-32 41 81 81 82 81 40
-39 c39 -38 40 -38 60 -20 11 10 20 23 20 29 0 7 -26 37 -58 69 -46 45 -60 55
-70 45 -10 -10 -33 8 -110 85 -53 53 -102 97 -107 97 -6 -1 -48 -38 -94 -85z
m161 -92 l78 -77 -42 -43 c-23 -24 -45 -43 -49 -43 -4 0 -21 24 -37 53 -16 28
-44 65 -61 81 -17 17 -31 34 -31 39 0 9 50 65 60 66 2 1 39 -34 82 -76z"/>
<path d="M4955 8700 c-3 -6 1 -7 9 -4 18 7 21 14 7 14 -6 0 -13 -4 -16 -10z"/>
<path d="M4925 8680 c-3 -5 -1 -10 4 -10 6 0 11 5 11 10 0 6 -2 10 -4 10 -3 0
-8 -4 -11 -10z"/>
<path d="M6052 8678 c-7 -7 -12 -16 -12 -21 0 -5 7 -1 16 8 9 9 14 18 12 20
-2 3 -10 -1 -16 -7z"/>
<path d="M7060 8650 c7 -14 25 -43 41 -66 79 -117 151 -301 189 -484 32 -157
52 -356 44 -445 -14 -172 -111 -376 -211 -445 -113 -78 -371 -81 -614 -6 -185
56 -404 71 -579 41 -80 -14 -88 -18 -135 -64 -27 -26 -65 -61 -82 -76 -18 -16
-33 -31 -33 -35 0 -4 28 -1 63 6 34 8 111 14 170 14 173 0 338 -43 504 -131
50 -27 94 -46 97 -41 10 16 146 79 296 137 52 20 110 43 127 50 22 10 40 12
55 5 21 -8 21 -9 3 -10 -34 -2 -69 -10 -74 -17 -3 -3 4 -3 16 0 13 3 25 2 28
-3 3 -4 -16 -13 -41 -19 -25 -7 -56 -18 -67 -26 -12 -8 -35 -16 -52 -19 -16
-3 -47 -14 -70 -25 -77 -39 -160 -74 -167 -73 -5 1 -8 -2 -8 -7 0 -5 -15 -15
-32 -22 -18 -7 -37 -17 -43 -21 -5 -5 -21 -17 -34 -28 -13 -11 -29 -20 -35
-20 -6 0 -3 7 7 14 24 18 22 29 -3 14 -11 -7 -20 -18 -20 -25 0 -7 -6 -10 -13
-7 -14 5 -136 -114 -191 -187 -52 -69 -94 -144 -134 -239 l-36 -85 -1 -155 c0
-148 1 -158 27 -212 15 -32 29 -58 31 -58 2 0 1 37 -1 83 -6 106 13 182 77
312 61 123 155 242 274 345 158 138 270 175 617 200 69 5 133 10 143 10 10 0
16 4 13 9 -3 4 6 6 19 3 15 -2 25 0 25 7 0 7 4 10 8 7 5 -3 31 3 58 13 36 14
50 25 52 41 3 19 0 21 -25 16 -24 -6 -34 -1 -56 24 l-27 30 27 0 c19 0 24 3
15 9 -7 4 -24 6 -38 3 -20 -3 -24 0 -24 18 0 19 4 21 26 16 19 -5 25 -3 22 6
-3 8 -17 12 -37 10 -29 -3 -32 -1 -29 19 2 17 -3 24 -19 28 -13 4 -32 14 -43
24 -24 20 -37 22 -42 5 -3 -7 -7 -6 -11 5 -4 10 -1 17 6 17 7 1 26 18 42 39
17 21 33 37 38 34 4 -2 7 1 7 7 0 6 5 8 12 4 7 -4 8 -3 4 5 -4 6 5 28 21 49
27 34 94 155 94 167 0 2 1 10 3 17 54 181 48 414 -18 700 -11 48 -68 202 -92
250 -13 26 -21 55 -18 65 5 15 4 16 -5 3 -10 -13 -15 -8 -12 13 0 4 -3 7 -7 7
-5 0 -18 20 -31 44 -12 25 -27 47 -34 49 -9 4 -9 6 1 6 7 1 22 -15 33 -34 19
-32 39 -46 39 -27 0 10 -52 61 -119 117 l-24 20 13 -25z m-43 -1526 c-3 -3
-12 -4 -19 -1 -8 3 -5 6 6 6 11 1 17 -2 13 -5z m310 -240 c-3 -3 -12 -4 -19
-1 -8 3 -5 6 6 6 11 1 17 -2 13 -5z"/>
<path d="M4445 8580 c-4 -17 -5 -34 -2 -36 2 -3 7 10 11 27 8 42 0 50 -9 9z"/>
<path d="M5784 8548 c8 -42 19 -53 98 -99 l68 -40 0 -58 c0 -43 5 -65 19 -82
l19 -23 0 28 c0 17 -3 23 -8 16 -31 -50 -12 210 20 269 6 12 7 21 2 21 -4 0
-19 -35 -33 -77 l-26 -78 -77 78 c-42 42 -79 77 -83 77 -3 0 -3 -14 1 -32z"/>
<path d="M10770 8561 c0 -6 4 -13 10 -16 6 -3 7 1 4 9 -7 18 -14 21 -14 7z"/>
<path d="M11150 8559 c0 -5 5 -7 10 -4 6 3 10 8 10 11 0 2 -4 4 -10 4 -5 0
-10 -5 -10 -11z"/>
<path d="M10786 8513 c-6 -14 -5 -15 5 -6 7 7 10 15 7 18 -3 3 -9 -2 -12 -12z"/>
<path d="M11188 8523 c7 -3 16 -2 19 1 4 3 -2 6 -13 5 -11 0 -14 -3 -6 -6z"/>
<path d="M4446 8513 c-17 -5 -18 -12 -13 -97 3 -50 13 -131 22 -179 18 -102
80 -303 97 -313 8 -5 9 -1 3 12 -4 10 -10 75 -12 144 -4 122 2 170 37 295 6
22 13 51 16 65 4 25 4 25 -6 2 -14 -33 -40 -58 -41 -40 -1 7 -1 16 0 20 0 4
-13 5 -31 1 -29 -6 -31 -4 -25 16 6 25 0 51 -13 51 -5 0 -11 -15 -13 -32 -2
-18 -3 -12 -2 15 1 26 2 46 1 46 -1 -1 -10 -4 -20 -6z m121 -155 c-3 -8 -6 -5
-6 6 -1 11 2 17 5 13 3 -3 4 -12 1 -19z"/>
<path d="M7190 8516 c0 -2 9 -6 20 -9 11 -3 18 -1 14 4 -5 9 -34 13 -34 5z"/>
<path d="M4561 8434 c0 -11 3 -14 6 -6 3 7 2 16 -1 19 -3 4 -6 -2 -5 -13z"/>
<path d="M4622 8390 c-67 -147 -63 -442 9 -581 10 -20 15 -40 11 -44 -4 -5 -2
-5 5 -2 6 4 9 17 7 30 -2 12 -1 15 2 7 4 -8 13 -19 20 -23 8 -4 14 -13 14 -20
0 -7 -4 -6 -10 3 -9 13 -11 13 -20 0 -5 -8 -9 -19 -9 -25 0 -5 3 -4 6 3 7 19
25 14 19 -5 -3 -10 2 -29 10 -43 14 -23 13 -13 -3 27 -4 9 -2 14 3 10 11 -6
11 29 1 53 -3 8 -10 33 -16 55 -9 36 -9 38 4 21 20 -26 22 -20 17 39 -4 39 -7
46 -13 30 -7 -16 -8 -17 -6 -2 5 43 22 16 35 -56 8 -43 16 -76 18 -74 3 2 -2
44 -11 92 -8 48 -15 108 -15 132 0 39 2 44 18 38 128 -55 145 -59 272 -60 81
0 139 5 163 13 21 8 36 16 34 18 -2 3 -17 0 -33 -6 -46 -18 -176 -23 -241 -10
-47 10 -54 14 -38 21 14 7 9 8 -17 4 -43 -7 -89 17 -87 44 1 14 2 14 6 -1 4
-14 13 -17 46 -13 41 5 42 5 17 -11 l-25 -15 25 6 c31 8 40 10 65 19 60 22 60
21 9 40 -27 10 -68 29 -92 42 -24 13 -51 21 -60 18 -11 -4 -13 -3 -5 3 8 6 2
18 -24 43 -53 52 -77 105 -77 172 -1 32 -3 58 -6 58 -3 0 -15 -23 -28 -50z
m225 -276 c-3 -3 -12 -4 -19 -1 -8 3 -5 6 6 6 11 1 17 -2 13 -5z m78 -25 c17
-1 16 -2 -5 -9 -35 -11 -60 -11 -35 1 14 6 5 7 -30 4 -42 -4 -44 -3 -17 4 18
5 36 12 39 15 4 3 11 2 17 -4 5 -5 19 -10 31 -11z m-302 -104 c-3 -9 -8 -14
-10 -11 -3 3 -2 9 2 15 9 16 15 13 8 -4z m34 -57 c-3 -7 -5 -2 -5 12 0 14 2
19 5 13 2 -7 2 -19 0 -25z m-7 -88 c0 -11 -2 -20 -4 -20 -2 0 -6 9 -9 20 -3
11 -1 20 4 20 5 0 9 -9 9 -20z"/>
<path d="M3421 8394 c-12 -15 -21 -29 -21 -33 1 -3 23 -23 50 -44 l50 -39 -32
-44 c-50 -69 -50 -69 -108 -23 l-52 41 -24 -28 c-13 -16 -23 -32 -24 -36 0 -6
99 -87 227 -187 l43 -32 25 28 c13 15 25 31 25 34 0 4 -21 24 -47 45 -27 20
-52 41 -57 45 -9 8 62 108 77 109 4 0 32 -19 63 -41 l54 -42 23 29 c12 16 22
32 22 35 0 10 -252 209 -264 209 -5 0 -19 -12 -30 -26z"/>
<path d="M8669 8328 c-117 -156 -208 -259 -365 -415 -195 -196 -230 -251 -48
-79 138 131 191 186 264 276 25 30 47 57 51 60 5 4 102 145 122 177 16 25 0
12 -24 -19z"/>
<path d="M11035 8310 c-3 -6 1 -7 9 -4 18 7 21 14 7 14 -6 0 -13 -4 -16 -10z"/>
<path d="M7765 8276 c-76 -33 -110 -115 -102 -241 7 -113 32 -180 87 -237 43
-45 50 -48 96 -47 48 0 111 17 72 18 -23 1 -24 21 -1 21 15 0 14 2 -3 16 -18
15 -18 15 11 9 22 -4 26 -3 15 5 -8 5 -27 7 -42 4 -19 -4 -34 1 -50 15 -12 12
-18 21 -14 21 4 0 -7 18 -24 40 -17 22 -29 40 -26 40 2 0 -1 12 -9 27 -8 14
-12 40 -9 57 3 23 2 26 -4 11 -8 -16 -10 -15 -15 14 -10 46 -8 59 3 41 7 -10
8 1 4 35 -4 28 -11 56 -17 63 -7 9 -5 11 9 6 15 -6 17 -4 7 6 -14 15 -6 40 13
40 8 0 14 4 14 10 0 5 12 16 28 24 22 13 24 15 7 15 -11 0 -34 -6 -50 -13z
m-34 -139 c-6 -6 -11 -22 -11 -36 0 -13 -3 -22 -6 -18 -11 10 6 78 17 71 7 -4
7 -10 0 -17z"/>
<path d="M8623 8163 c-69 -152 -85 -212 -90 -360 -6 -137 1 -199 18 -172 7 11
9 9 9 -9 0 -13 -4 -20 -10 -17 -6 4 -10 -7 -9 -27 1 -18 3 -25 6 -15 7 29 23
9 23 -30 0 -20 3 -34 6 -30 3 3 0 64 -6 136 -17 180 -2 306 58 488 11 33 25
71 32 83 6 11 10 26 8 32 -2 6 -22 -30 -45 -79z m-76 -420 c-3 -10 -5 -4 -5
12 0 17 2 24 5 18 2 -7 2 -21 0 -30z"/>
<path d="M5375 8220 c-3 -5 -1 -10 4 -10 6 0 11 5 11 10 0 6 -2 10 -4 10 -3 0
-8 -4 -11 -10z"/>
<path d="M7756 8222 c-3 -6 1 -13 10 -16 23 -9 28 -2 10 13 -8 7 -17 8 -20 3z"/>
<path d="M5959 8148 c54 -58 142 -100 224 -106 51 -4 68 -2 63 6 -4 8 -2 10 7
6 8 -3 21 2 30 10 8 8 17 12 20 9 3 -3 13 2 22 11 21 21 11 20 -60 -5 -44 -15
-73 -20 -109 -15 -47 5 -141 44 -169 69 -42 39 -58 47 -28 15z"/>
<path d="M5571 8124 c0 -11 3 -14 6 -6 3 7 2 16 -1 19 -3 4 -6 -2 -5 -13z"/>
<path d="M5128 8083 c7 -3 16 -2 19 1 4 3 -2 6 -13 5 -11 0 -14 -3 -6 -6z"/>
<path d="M4918 8043 c7 -3 16 -2 19 1 4 3 -2 6 -13 5 -11 0 -14 -3 -6 -6z"/>
<path d="M3185 8015 c-50 -18 -100 -71 -116 -125 -53 -178 203 -313 315 -166
60 79 58 162 -5 231 -56 60 -128 83 -194 60z m122 -112 c45 -36 59 -73 43
-113 -26 -63 -119 -60 -185 6 -41 41 -45 78 -13 119 19 25 26 27 70 23 34 -4
60 -14 85 -35z"/>
<path d="M11365 7900 c3 -5 11 -10 16 -10 6 0 7 5 4 10 -3 6 -11 10 -16 10 -6
0 -7 -4 -4 -10z"/>
<path d="M7850 7850 c8 -5 22 -9 30 -9 10 0 8 3 -5 9 -27 12 -43 12 -25 0z"/>
<path d="M4701 7794 c0 -11 3 -14 6 -6 3 7 2 16 -1 19 -3 4 -6 -2 -5 -13z"/>
<path d="M4730 7773 c0 -16 31 -95 36 -90 2 2 -5 25 -16 53 -10 27 -19 43 -20
37z"/>
<path d="M8975 7760 c-3 -6 1 -7 9 -4 18 7 21 14 7 14 -6 0 -13 -4 -16 -10z"/>
<path d="M8091 7711 c-7 -5 -9 -11 -5 -14 5 -3 15 1 22 9 14 16 5 18 -17 5z"/>
<path d="M8950 7688 c0 -6 -3 -8 -7 -4 -13 13 -33 -78 -33 -151 0 -93 16 -167
48 -223 28 -50 36 -58 72 -83 40 -28 58 -20 22 11 -40 35 -77 111 -91 187 -13
72 -19 245 -8 238 4 -2 7 5 7 16 0 12 -2 21 -5 21 -3 0 -5 -5 -5 -12z"/>
<path d="M8056 7678 c3 -5 10 -6 15 -3 13 9 11 12 -6 12 -8 0 -12 -4 -9 -9z"/>
<path d="M4741 7654 c0 -11 3 -14 6 -6 3 7 2 16 -1 19 -3 4 -6 -2 -5 -13z"/>
<path d="M4771 7654 c0 -11 3 -14 6 -6 3 7 2 16 -1 19 -3 4 -6 -2 -5 -13z"/>
<path d="M8005 7659 c-4 -6 -5 -12 -2 -15 2 -3 7 2 10 11 7 17 1 20 -8 4z"/>
<path d="M2992 7629 c-19 -6 -54 -30 -78 -54 l-44 -45 -62 25 c-34 14 -65 25
-69 25 -11 0 -30 -63 -22 -71 5 -4 35 -18 68 -32 40 -16 59 -29 56 -38 -10
-31 -2 -117 12 -145 30 -58 93 -94 164 -94 56 0 98 22 139 73 l28 35 54 -24
c67 -30 66 -30 80 1 19 42 15 49 -40 70 l-53 21 -5 74 c-3 41 -11 85 -18 97
-18 32 -71 69 -117 82 -46 13 -49 12 -93 0z m121 -105 c14 -10 30 -29 36 -42
13 -26 15 -72 4 -72 -5 0 -57 21 -116 47 l-109 47 28 24 c23 20 36 24 79 20
29 -3 63 -13 78 -24z m4 -188 c9 -8 -11 -35 -33 -45 -78 -35 -184 23 -184 100
l0 38 107 -45 c59 -25 109 -46 110 -48z"/>
<path d="M961 7594 c0 -11 3 -14 6 -6 3 7 2 16 -1 19 -3 4 -6 -2 -5 -13z"/>
<path d="M995 7580 c-16 -7 -17 -9 -3 -9 9 -1 20 4 23 9 7 11 7 11 -20 0z"/>
<path d="M11335 7500 c10 -11 20 -20 23 -20 3 0 -3 9 -13 20 -10 11 -20 20
-23 20 -3 0 3 -9 13 -20z"/>
<path d="M8551 7494 c0 -11 3 -14 6 -6 3 7 2 16 -1 19 -3 4 -6 -2 -5 -13z"/>
<path d="M8567 7459 c7 -7 15 -10 18 -7 3 3 -2 9 -12 12 -14 6 -15 5 -6 -5z"/>
<path d="M8571 7384 c0 -11 3 -14 6 -6 3 7 2 16 -1 19 -3 4 -6 -2 -5 -13z"/>
<path d="M5370 7221 c37 -69 -34 -184 -238 -389 -51 -51 -90 -97 -87 -102 3
-6 0 -7 -7 -5 -8 3 -23 -5 -34 -17 -46 -52 -221 -179 -322 -234 -95 -53 -84
-56 48 -13 95 30 153 53 180 70 8 5 23 12 33 15 9 4 17 11 17 17 0 6 3 8 6 4
6 -6 144 62 144 71 0 2 -7 1 -16 -2 -9 -3 -12 -2 -9 5 4 5 14 7 24 4 21 -6
110 55 104 72 -2 7 -11 9 -19 6 -8 -3 -14 -1 -14 4 0 15 41 13 46 -2 5 -11 9
-12 19 -2 7 7 11 15 8 20 -2 4 4 7 14 7 10 0 32 12 48 26 17 14 25 23 19 20
-6 -3 -30 1 -54 8 -27 8 -38 15 -30 19 12 4 12 6 1 6 -9 1 -10 5 -3 14 7 8 5
16 -6 27 -14 13 -15 12 -9 -3 8 -20 -7 -31 -21 -14 -7 8 -4 20 13 39 13 15 26
24 29 21 3 -4 6 -1 6 5 0 19 52 73 66 68 8 -3 11 0 7 10 -3 8 8 34 24 57 60
87 73 141 42 168 -28 24 -43 24 -29 0z m-130 -399 c3 -3 -5 -2 -17 1 -13 3
-23 1 -23 -4 0 -5 8 -9 18 -10 9 0 35 -7 57 -15 22 -7 28 -11 13 -9 -15 3 -29
1 -33 -4 -3 -5 5 -11 17 -13 14 -2 1 -7 -30 -12 -37 -6 -57 -4 -68 4 -8 7 -18
9 -22 5 -4 -4 -2 -10 4 -12 18 -6 5 -39 -20 -51 -24 -11 -57 0 -37 12 6 4 11
2 11 -4 0 -8 6 -8 20 0 21 11 28 40 10 40 -5 0 -10 4 -10 9 0 15 41 24 53 12
6 -6 22 -10 37 -10 20 1 21 2 5 6 -33 8 -42 23 -14 24 22 0 22 1 4 8 -12 5
-23 4 -27 -3 -4 -6 -11 -7 -15 -2 -4 5 -2 11 5 13 6 3 12 13 12 24 0 17 3 18
23 8 12 -6 24 -14 27 -17z m-80 -16 c0 -3 -4 -8 -10 -11 -5 -3 -10 -1 -10 4 0
6 5 11 10 11 6 0 10 -2 10 -4z m-45 -53 c-2 -10 -4 -19 -4 -21 -1 -2 -6 0 -11
3 -8 5 -7 11 1 21 15 18 18 18 14 -3z m-38 -15 c2 -17 0 -19 -7 -8 -5 8 -6 18
-4 22 8 12 10 10 11 -14z m113 -37 c0 -5 -7 -12 -16 -15 -24 -9 -28 -7 -14 9
14 17 30 20 30 6z m-50 -31 c0 -5 -2 -10 -4 -10 -3 0 -8 5 -11 10 -3 6 -1 10
4 10 6 0 11 -4 11 -10z"/>
<path d="M7180 7185 c-11 -13 -10 -14 4 -9 9 3 16 10 16 15 0 13 -6 11 -20 -6z"/>
<path d="M7146 7161 c-4 -7 -5 -15 -2 -18 9 -9 19 4 14 18 -4 11 -6 11 -12 0z"/>
<path d="M7175 7150 c-3 -5 -2 -10 4 -10 5 0 13 5 16 10 3 6 2 10 -4 10 -5 0
-13 -4 -16 -10z"/>
<path d="M1200 7146 c0 -2 8 -10 18 -17 15 -13 16 -12 3 4 -13 16 -21 21 -21
13z"/>
<path d="M4943 7118 c-2 -16 1 -18 10 -9 7 7 8 14 1 21 -6 6 -10 2 -11 -12z"/>
<path d="M5082 7114 c10 -10 20 -16 22 -13 3 3 -5 11 -17 18 -21 13 -21 12 -5
-5z"/>
<path d="M1214 7098 c3 -15 26 -23 26 -8 0 6 -4 9 -9 6 -5 -4 -12 -1 -14 4 -3
6 -4 5 -3 -2z"/>
<path d="M4910 7100 c0 -5 5 -10 11 -10 5 0 7 5 4 10 -3 6 -8 10 -11 10 -2 0
-4 -4 -4 -10z"/>
<path d="M4869 7060 c-26 -25 -26 -27 -12 -55 l15 -30 -21 23 -22 22 -127
-103 c-125 -102 -214 -169 -342 -255 l-65 -44 40 7 c118 20 458 196 439 227
-4 7 -3 8 4 4 14 -9 111 64 112 84 0 12 2 13 9 1 7 -11 11 -9 20 7 10 19 9 21
-6 15 -15 -5 -15 -3 2 10 11 9 27 17 35 17 13 0 13 1 0 10 -9 6 -20 5 -30 -3
-13 -11 -13 -10 -1 6 13 16 13 20 0 28 -8 5 -23 9 -34 10 -17 1 -17 2 -2 6 9
2 17 9 17 14 0 6 7 3 16 -5 8 -9 22 -16 29 -16 18 0 28 17 15 25 -6 4 -8 11
-5 16 4 5 2 9 -3 9 -16 0 -22 -13 -11 -27 9 -9 8 -13 0 -13 -6 0 -11 4 -11 10
0 5 -8 13 -17 18 -13 6 -25 1 -44 -18z m2 -37 c13 -16 12 -17 -3 -4 -10 7 -18
15 -18 17 0 8 8 3 21 -13z m39 -3 c0 -5 -4 -10 -10 -10 -5 0 -10 5 -10 10 0 6
5 10 10 10 6 0 10 -4 10 -10z m-73 -52 c-3 -8 -6 -5 -6 6 -1 11 2 17 5 13 3
-3 4 -12 1 -19z m38 -18 c3 -5 1 -10 -4 -10 -6 0 -11 5 -11 10 0 6 2 10 4 10
3 0 8 -4 11 -10z m-175 -74 c0 -2 -7 -7 -16 -10 -8 -3 -12 -2 -9 4 6 10 25 14
25 6z"/>
<path d="M1241 7054 c0 -11 3 -14 6 -6 3 7 2 16 -1 19 -3 4 -6 -2 -5 -13z"/>
<path d="M5000 7039 c0 -5 5 -7 10 -4 6 3 10 8 10 11 0 2 -4 4 -10 4 -5 0 -10
-5 -10 -11z"/>
<path d="M4973 7014 c0 -14 2 -21 6 -17 3 4 9 10 12 13 4 3 1 10 -6 17 -10 9
-12 6 -12 -13z"/>
<path d="M9534 6999 c-3 -6 10 -45 29 -87 49 -105 68 -179 74 -295 7 -118 -6
-184 -54 -284 -71 -147 -196 -261 -388 -357 -162 -80 -329 -117 -535 -119
-114 -1 -255 15 -288 32 -8 5 14 20 60 40 89 40 201 96 246 123 29 18 31 22
17 32 -15 10 -14 12 4 12 11 0 17 -4 15 -8 -10 -15 12 -8 49 18 21 14 36 28
33 31 -3 3 -12 0 -21 -7 -9 -7 -18 -10 -21 -7 -10 9 37 29 54 22 13 -5 13 -2
-3 15 -20 22 -92 30 -79 8 4 -7 3 -8 -4 -4 -21 13 0 35 36 39 26 2 19 4 -22 5
-42 2 -62 7 -71 19 -15 20 -39 7 -32 -18 3 -11 1 -17 -4 -13 -13 7 -11 31 3
54 10 15 10 22 1 31 -9 9 -11 7 -7 -7 3 -12 -4 -28 -20 -43 -14 -14 -26 -19
-26 -13 0 7 5 12 10 12 6 0 10 6 10 14 0 8 6 17 13 19 6 3 7 6 1 6 -6 1 -33
-27 -61 -61 -126 -155 -264 -268 -439 -359 -54 -28 -101 -53 -103 -55 -2 -2
39 8 90 23 140 38 139 38 194 4 76 -46 237 -106 365 -136 175 -41 200 -51 200
-83 -1 -30 -24 -63 -58 -81 -20 -10 -29 -8 -69 19 l-47 32 27 -35 c15 -20 27
-39 27 -44 0 -16 -140 -70 -280 -107 -136 -35 -194 -45 -380 -65 l-165 -17 65
-16 c36 -10 81 -19 100 -23 19 -3 60 -11 90 -17 76 -16 328 -16 428 1 l83 14
38 -37 c20 -20 41 -33 45 -29 4 4 4 -1 0 -12 -6 -15 -4 -17 10 -12 9 4 15 3
12 -2 -6 -10 81 -88 124 -112 16 -9 27 -19 23 -22 -3 -4 6 -11 20 -16 14 -5
28 -15 32 -21 4 -6 16 -8 27 -4 13 4 18 2 14 -4 -3 -6 -1 -14 6 -18 18 -11 48
-12 42 -2 -4 5 2 16 12 23 11 8 14 15 8 15 -5 0 -20 -9 -32 -20 -11 -11 -23
-16 -26 -12 -3 5 4 15 15 22 10 8 19 18 19 23 0 5 -7 4 -15 -3 -8 -6 -19 -9
-26 -5 -6 4 -15 1 -20 -6 -4 -7 -11 -10 -15 -7 -3 4 1 15 11 24 13 13 19 14
25 5 5 -8 10 -9 14 -3 3 6 -8 15 -24 21 -17 5 -33 17 -36 26 -7 17 -25 21 -22
4 4 -14 -39 -22 -47 -9 -3 5 0 7 8 4 8 -3 19 2 26 10 10 12 9 14 -11 12 -13
-1 -30 -6 -37 -10 -10 -6 -10 -4 1 13 7 12 16 21 21 21 4 0 5 -5 1 -12 -5 -8
-2 -9 9 -5 21 8 111 -29 102 -42 -7 -13 27 -23 51 -15 14 4 15 3 5 -4 -9 -7
-10 -12 -2 -16 6 -4 11 -2 11 3 0 15 17 14 32 -2 6 -8 22 -11 35 -9 19 4 22 1
17 -14 -4 -12 -3 -15 3 -7 6 9 20 9 48 3 58 -14 94 -12 111 4 23 23 17 39 -8
22 -12 -9 -34 -16 -48 -16 -32 0 -164 39 -245 72 -97 40 -100 41 -107 40 -5
-1 -8 3 -8 9 0 5 -4 7 -10 4 -5 -3 -10 -2 -10 4 0 5 -10 13 -22 17 -12 3 -28
13 -36 20 -7 8 -20 14 -28 14 -8 0 -14 5 -14 11 0 6 -7 8 -16 5 -10 -4 -13 -2
-8 6 5 8 2 9 -10 5 -9 -4 -15 -3 -12 1 6 10 -29 42 -38 36 -3 -2 -3 1 2 6 9
11 197 54 225 52 48 -5 55 -7 51 -14 -3 -5 3 -11 13 -15 10 -3 30 -15 46 -25
15 -11 27 -15 27 -10 0 5 17 13 38 18 28 6 32 9 15 11 -12 3 -32 -1 -44 -7
-16 -9 -24 -9 -33 1 -8 9 -8 10 1 5 7 -4 23 0 36 9 13 8 33 13 43 10 10 -4 -3
6 -31 21 -33 18 -45 29 -35 32 40 14 360 126 475 167 285 101 441 114 717 60
99 -19 282 -105 343 -160 17 -15 41 -37 54 -49 l24 -21 -23 40 c-80 136 -179
250 -262 302 -35 22 -109 60 -164 85 -125 56 -183 95 -252 167 -43 45 -50 50
-37 24 20 -40 131 -153 142 -144 4 3 2 -1 -5 -11 -12 -15 -15 -15 -45 0 -18 8
-35 20 -38 25 -4 5 -10 4 -14 -3 -8 -13 -76 -6 -150 14 -30 8 -96 39 -165 78
-46 26 -160 143 -161 165 0 16 -1 16 -9 -2 -8 -19 -9 -19 -9 4 -1 17 -5 21
-17 17 -8 -3 -12 -2 -9 4 3 6 0 10 -7 10 -7 1 -2 7 12 15 14 7 24 15 22 17 -9
9 12 38 25 34 8 -3 11 -1 8 4 -4 6 7 32 24 58 120 188 133 379 42 632 -17 47
-25 78 -19 70 30 -35 37 -17 8 20 -33 42 -44 48 -56 29z m30 -15 c3 -8 2 -12
-4 -9 -6 3 -10 10 -10 16 0 14 7 11 14 -7z m-1004 -800 c0 -8 -5 -12 -10 -9
-6 4 -8 11 -5 16 9 14 15 11 15 -7z m130 12 c0 -3 -4 -8 -10 -11 -5 -3 -10 -1
-10 4 0 6 5 11 10 11 6 0 10 -2 10 -4z m74 -41 c-10 -8 -23 -14 -29 -14 -5 0
-1 6 9 14 11 8 24 15 30 15 5 0 1 -7 -10 -15z m1266 -357 c0 -6 -6 -5 -15 2
-8 7 -15 14 -15 16 0 2 7 1 15 -2 8 -4 15 -11 15 -16z m90 3 c0 -5 -7 -12 -16
-15 -14 -5 -15 -4 -4 9 14 17 20 19 20 6z m-1003 -496 c-1 -1 -15 -5 -32 -9
-22 -5 -26 -4 -15 4 13 8 13 10 -2 10 -10 0 -18 4 -18 9 0 5 15 4 35 -2 19 -6
34 -11 32 -12z"/>
<path d="M2683 6943 c-14 -58 -16 -55 120 -164 54 -44 94 -79 90 -79 -4 0 -53
11 -108 25 -126 31 -141 31 -149 3 -14 -52 -11 -54 102 -77 59 -12 133 -28
164 -35 32 -8 60 -11 63 -7 2 4 8 27 14 49 l9 42 -57 51 c-31 28 -82 69 -113
92 -32 23 -58 44 -58 47 0 3 48 -6 108 -22 144 -37 150 -36 158 7 3 20 5 37 3
39 -2 2 -69 18 -149 35 -80 18 -154 34 -166 37 -17 5 -22 -2 -31 -43z"/>
<path d="M7366 6963 c-4 -10 1 -12 22 -7 36 9 37 11 8 16 -16 3 -27 0 -30 -9z"/>
<path d="M2534 6934 c-5 -19 -1 -29 15 -40 35 -25 21 -74 -20 -74 -16 0 -29
-19 -29 -41 0 -16 57 -10 80 9 16 13 24 32 27 68 5 44 2 52 -22 77 -34 34 -43
34 -51 1z"/>
<path d="M7389 6948 c-5 -17 -4 -48 3 -48 4 0 8 11 8 25 0 20 -7 34 -11 23z"/>
<path d="M7415 6940 c4 -6 11 -8 16 -5 14 9 11 15 -7 15 -8 0 -12 -5 -9 -10z"/>
<path d="M7611 6630 c0 -8 4 -22 9 -30 12 -18 12 -2 0 25 -6 13 -9 15 -9 5z"/>
<path d="M7637 6584 c-7 -8 24 -74 35 -74 4 0 8 -6 8 -12 1 -37 171 -212 273
-281 45 -31 91 -59 102 -63 11 -4 31 -16 45 -27 l25 -19 -24 7 c-18 5 -22 4
-16 -5 5 -9 4 -11 -3 -6 -9 5 -42 -9 -72 -32 -2 -1 2 -7 10 -12 7 -5 15 -17
16 -27 2 -14 -1 -13 -15 6 -17 22 -49 22 -35 0 3 -5 10 -7 15 -4 5 4 9 1 9 -5
0 -6 -10 -8 -24 -4 -14 3 -34 3 -46 -1 l-22 -7 22 -15 c18 -13 24 -13 31 -2 4
7 11 10 15 7 8 -8 -20 -38 -35 -38 -15 0 -14 -20 2 -20 6 -1 1 -7 -13 -16 -23
-14 -24 -14 -2 -9 12 3 31 7 41 10 22 7 37 -10 20 -21 -8 -5 -9 -3 -4 6 6 9 1
10 -16 5 -13 -3 -32 -9 -41 -11 -10 -3 -18 -10 -18 -15 0 -12 14 -11 27 2 8 8
13 8 17 0 4 -6 -1 -11 -11 -12 -13 -1 -11 -3 7 -10 21 -7 20 -8 -9 -4 -30 5
-32 3 -20 -12 12 -15 12 -16 -6 -10 -20 7 -20 7 -1 -8 27 -21 1 -19 -31 3 -15
9 -24 12 -20 5 4 -7 0 -16 -10 -23 -15 -8 -12 -9 12 -4 23 4 27 3 15 -5 -12
-9 -8 -10 15 -5 17 4 34 11 40 15 5 5 17 9 26 9 10 0 24 7 33 15 8 9 19 14 23
13 16 -5 73 25 66 35 -3 6 -1 7 5 3 18 -11 37 4 21 16 -11 7 -9 8 4 4 23 -7
43 3 132 67 87 62 150 121 226 212 85 100 104 129 139 210 l21 50 -48 -46
c-60 -59 -112 -85 -196 -99 -87 -15 -166 -6 -265 30 -23 9 -37 9 -44 2 -6 -6
-16 -8 -24 -5 -8 3 -16 -5 -20 -22 -6 -25 -7 -25 -25 -9 -10 9 -16 22 -12 28
3 6 2 8 -2 3 -5 -4 -9 -18 -10 -31 0 -18 3 -22 11 -15 8 7 15 1 22 -20 6 -16
8 -32 5 -35 -10 -9 6 -7 30 5 21 10 21 10 3 -5 -25 -20 -35 -20 -42 -1 -4 8
-10 12 -15 9 -5 -3 -9 0 -9 6 0 6 -5 8 -11 5 -6 -5 -3 -13 10 -22 12 -8 21
-20 21 -26 0 -9 -2 -9 -8 -1 -4 6 -29 23 -55 37 -43 22 -47 26 -30 37 16 10
16 10 -3 5 -13 -3 -28 1 -37 10 -9 8 -19 15 -22 15 -19 0 -166 162 -192 212
-17 32 -33 55 -36 52z m423 -384 c8 -5 11 -10 5 -10 -5 0 -17 5 -25 10 -8 5
-10 10 -5 10 6 0 17 -5 25 -10z m0 -120 c-8 -5 -19 -10 -25 -10 -5 0 -3 5 5
10 8 5 20 10 25 10 6 0 3 -5 -5 -10z m-73 -226 c-3 -3 -12 -4 -19 -1 -8 3 -5
6 6 6 11 1 17 -2 13 -5z"/>
<path d="M11476 6533 c-6 -14 -5 -15 5 -6 7 7 10 15 7 18 -3 3 -9 -2 -12 -12z"/>
<path d="M2598 6479 l-3 -52 81 -52 c44 -29 100 -63 123 -75 24 -12 41 -24 38
-27 -3 -2 -45 0 -94 6 -48 6 -105 11 -125 11 -37 0 -38 -1 -38 -39 l0 -38 143
-12 c78 -7 154 -14 168 -17 29 -6 39 12 39 73 0 30 -7 36 -125 109 -69 43
-124 79 -122 80 1 1 58 -4 126 -12 136 -16 141 -15 141 38 0 31 0 32 -181 48
-179 16 -166 19 -171 -41z"/>
<path d="M7897 6476 c20 -26 27 -28 17 -3 -3 8 -12 18 -20 21 -11 4 -10 0 3
-18z"/>
<path d="M10228 6426 c-55 -20 -130 -79 -177 -140 -52 -67 -64 -107 -50 -160
36 -133 224 -154 376 -40 61 46 101 143 83 203 l-8 26 -1 -24 c-1 -24 -1 -24
-16 -5 -8 10 -15 14 -15 7 0 -10 -35 -5 -90 15 -8 3 -19 6 -25 6 -5 1 -30 12
-55 26 -25 13 -47 23 -50 23 -3 -1 -6 7 -6 18 0 18 42 40 101 52 16 4 15 5 -5
5 -14 1 -41 -5 -62 -12z m-38 -40 c0 -3 -4 -8 -10 -11 -5 -3 -10 -1 -10 4 0 6
5 11 10 11 6 0 10 -2 10 -4z"/>
<path d="M8005 6393 c2 -10 4 -22 4 -27 1 -4 8 -6 16 -2 8 3 15 1 15 -4 0 -6
-5 -10 -12 -10 -6 0 -8 -3 -5 -6 4 -4 13 -1 21 5 8 7 20 10 25 7 5 -4 12 -2
16 4 3 5 -5 12 -19 16 -14 3 -30 12 -37 20 -16 19 -28 18 -24 -3z m25 -13 c0
-5 -2 -10 -4 -10 -3 0 -8 5 -11 10 -3 6 -1 10 4 10 6 0 11 -4 11 -10z"/>
<path d="M7901 6321 c-8 -5 -9 -11 -3 -15 5 -3 12 1 16 9 6 17 6 18 -13 6z"/>
<path d="M7935 6320 c3 -5 8 -10 11 -10 2 0 4 5 4 10 0 6 -5 10 -11 10 -5 0
-7 -4 -4 -10z"/>
<path d="M8864 6226 c-6 -6 -9 -16 -7 -21 1 -6 -1 -16 -6 -24 -7 -10 -13 -11
-32 -1 -23 12 -23 12 -6 -6 21 -23 50 -9 55 25 2 12 8 19 13 15 5 -3 6 -11 3
-17 -4 -7 -3 -9 1 -4 13 11 13 44 0 44 -6 0 -16 -5 -21 -11z"/>
<path d="M8825 6200 c-3 -5 -1 -10 4 -10 6 0 11 5 11 10 0 6 -2 10 -4 10 -3 0
-8 -4 -11 -10z"/>
<path d="M9502 6131 c-11 -7 -11 -9 0 -14 9 -3 15 1 15 9 0 8 -1 14 -1 14 -1
0 -7 -4 -14 -9z"/>
<path d="M2642 6072 l-73 -3 3 -42 3 -42 65 0 65 0 3 -67 3 -67 -63 -3 -63 -3
-3 -42 -3 -43 48 0 c26 0 105 3 176 7 l127 6 0 44 0 45 -74 -7 -74 -7 -4 67
c-1 37 0 69 3 70 3 2 35 5 72 6 l67 2 0 44 0 44 -102 -3 c-57 -2 -136 -4 -176
-6z"/>
<path d="M682 6000 c0 -14 2 -19 5 -12 2 6 2 18 0 25 -3 6 -5 1 -5 -13z"/>
<path d="M7911 5993 c7 -12 15 -20 18 -17 3 2 -3 12 -13 22 -17 16 -18 16 -5
-5z"/>
<path d="M7858 5979 c-10 -5 -18 -15 -18 -22 0 -7 4 -6 10 3 9 13 11 13 20 0
5 -8 20 -15 34 -15 14 -1 22 3 19 7 -2 5 -14 6 -25 2 -13 -4 -18 -2 -14 4 3 6
0 13 -6 16 -7 3 -2 3 11 0 16 -4 21 -3 17 5 -9 14 -25 14 -48 0z"/>
<path d="M11311 5874 c0 -11 3 -14 6 -6 3 7 2 16 -1 19 -3 4 -6 -2 -5 -13z"/>
<path d="M11331 5864 c0 -11 3 -14 6 -6 3 7 2 16 -1 19 -3 4 -6 -2 -5 -13z"/>
<path d="M542 5840 c0 -14 2 -19 5 -12 2 6 2 18 0 25 -3 6 -5 1 -5 -13z"/>
<path d="M7828 5793 c7 -3 16 -2 19 1 4 3 -2 6 -13 5 -11 0 -14 -3 -6 -6z"/>
<path d="M2758 5642 c-174 -28 -167 -24 -152 -101 6 -30 11 -32 130 -71 68
-22 130 -40 139 -40 38 0 1 -18 -47 -23 -29 -3 -83 -11 -120 -17 -64 -11 -68
-14 -68 -39 0 -54 3 -54 184 -25 l168 27 -7 46 c-4 25 -10 50 -14 54 -5 5 -68
28 -142 52 -74 24 -132 44 -129 45 3 1 19 4 35 6 145 22 208 34 212 38 10 10
-8 76 -20 75 -7 -1 -83 -13 -169 -27z"/>
<path d="M886 5647 c3 -10 9 -15 12 -12 3 3 0 11 -7 18 -10 9 -11 8 -5 -6z"/>
<path d="M2470 5504 c0 -19 7 -28 30 -35 36 -13 42 -52 10 -69 -23 -12 -28
-60 -6 -60 7 0 25 9 40 21 21 17 26 29 26 65 0 37 -6 51 -29 75 -38 37 -71 39
-71 3z"/>
<path d="M10417 5263 c-4 -3 -48 -21 -99 -39 -51 -18 -87 -33 -80 -33 21 -1
162 48 186 64 11 8 16 15 10 15 -6 0 -14 -3 -17 -7z"/>
<path d="M9135 5250 c-4 -6 -10 -8 -15 -5 -5 3 -12 0 -16 -6 -4 -7 -3 -9 4 -5
6 3 13 2 17 -4 3 -5 12 -10 18 -10 7 0 6 4 -3 11 -12 9 -10 10 8 6 19 -5 21
-3 11 9 -14 17 -16 17 -24 4z"/>
<path d="M2852 5210 c-189 -50 -172 -41 -160 -90 8 -31 15 -40 27 -37 9 2 81
21 161 42 80 21 149 41 154 45 11 11 -13 80 -27 79 -7 -1 -76 -19 -155 -39z"/>
<path d="M10185 5180 c-13 -6 -15 -9 -5 -9 8 0 22 4 30 9 18 12 2 12 -25 0z"/>
<path d="M1312 5150 c0 -14 2 -19 5 -12 2 6 2 18 0 25 -3 6 -5 1 -5 -13z"/>
<path d="M10138 5163 c7 -3 16 -2 19 1 4 3 -2 6 -13 5 -11 0 -14 -3 -6 -6z"/>
<path d="M10098 5153 c7 -3 16 -2 19 1 4 3 -2 6 -13 5 -11 0 -14 -3 -6 -6z"/>
<path d="M2572 5134 c-39 -27 -23 -84 24 -84 46 0 59 60 19 86 -18 12 -24 11
-43 -2z"/>
<path d="M3070 5096 c-55 -20 -65 -26 -62 -44 2 -12 -1 -22 -7 -22 -5 0 -66
-21 -134 -46 l-126 -46 26 -66 c13 -37 32 -87 40 -112 8 -25 18 -48 22 -52 3
-4 41 4 84 17 90 29 182 33 207 10 15 -14 25 -12 93 12 43 15 77 31 77 35 0 4
-4 18 -9 31 l-10 25 -51 -15 c-28 -8 -54 -13 -57 -10 -7 8 -73 190 -73 204 0
6 20 19 45 29 44 16 51 27 39 58 -8 21 -25 19 -104 -8z m-7 -199 c9 -30 17
-57 17 -60 0 -4 -17 -7 -38 -7 -34 0 -121 -19 -163 -35 -13 -5 -20 4 -32 40
l-16 46 27 11 c67 26 158 57 173 57 10 1 21 -17 32 -52z"/>
<path d="M9000 5070 c8 -5 20 -10 25 -10 6 0 3 5 -5 10 -8 5 -19 10 -25 10 -5
0 -3 -5 5 -10z"/>
<path d="M1057 4999 c7 -7 15 -10 18 -7 3 3 -2 9 -12 12 -14 6 -15 5 -6 -5z"/>
<path d="M1250 4996 c0 -2 7 -7 16 -10 8 -3 12 -2 9 4 -6 10 -25 14 -25 6z"/>
<path d="M10285 4973 c-11 -3 -24 -9 -29 -14 -8 -7 45 3 79 16 15 5 -27 4 -50
-2z"/>
<path d="M10199 4933 c-13 -17 -13 -17 6 -3 11 8 22 16 24 17 2 2 0 3 -6 3 -6
0 -17 -8 -24 -17z"/>
<path d="M838 4923 c7 -3 16 -2 19 1 4 3 -2 6 -13 5 -11 0 -14 -3 -6 -6z"/>
<path d="M10082 4802 c-1 -31 5 -68 13 -87 18 -36 75 -95 75 -77 0 7 -4 12
-10 12 -23 0 -65 84 -71 144 l-6 61 -1 -53z"/>
<path d="M9438 4681 c-78 -77 -131 -174 -158 -288 -6 -29 -15 -53 -19 -53 -4
0 -18 11 -31 25 -26 28 -52 35 -27 8 14 -17 13 -18 -14 -20 -21 -2 -29 2 -29
14 0 14 -4 13 -23 -5 -18 -17 -24 -19 -24 -8 0 8 4 13 9 10 12 -8 10 10 -4 24
-18 18 -28 15 -21 -5 6 -16 4 -16 -13 1 -10 11 -19 23 -19 27 0 4 -3 11 -7 15
-5 4 -8 1 -8 -6 0 -7 -2 -11 -5 -8 -3 3 -2 13 1 22 5 14 9 15 15 5 4 -8 11
-11 14 -7 4 3 -2 19 -12 35 -17 27 -17 28 1 13 17 -13 19 -13 14 0 -7 21 -33
19 -32 -2 1 -10 -2 -16 -6 -13 -5 3 -10 -1 -13 -7 -2 -7 -8 -10 -12 -6 -4 4
-2 14 4 22 10 12 9 20 -4 38 -13 17 -16 18 -11 4 5 -13 2 -17 -8 -13 -10 4
-13 1 -9 -8 3 -8 10 -12 16 -8 6 4 8 0 4 -10 -8 -21 63 -128 80 -122 7 2 10
-2 7 -8 -2 -7 29 -45 70 -84 99 -93 240 -170 346 -187 l35 -5 -25 17 c-102 69
-146 213 -105 347 10 33 11 54 4 67 -12 22 -24 24 -15 3 3 -8 1 -25 -4 -37 -8
-22 -15 -11 -11 20 1 6 -3 20 -8 30 -7 13 -9 6 -6 -26 2 -24 0 -55 -5 -68 -10
-25 -40 -34 -40 -11 0 9 -3 8 -9 -2 -6 -9 -11 -10 -15 -2 -4 6 -3 11 3 11 6 0
8 6 5 14 -7 19 46 127 59 119 7 -4 8 0 4 11 -8 21 18 53 27 33 3 -6 4 -3 1 8
-5 21 28 66 73 97 13 9 20 18 15 21 -4 3 -29 -16 -55 -42z m-51 -273 c-3 -8
-6 -5 -6 6 -1 11 2 17 5 13 3 -3 4 -12 1 -19z m-222 -76 c-3 -3 -11 0 -18 7
-9 10 -8 11 6 5 10 -3 15 -9 12 -12z"/>
<path d="M1475 4710 c-3 -6 1 -7 9 -4 18 7 21 14 7 14 -6 0 -13 -4 -16 -10z"/>
<path d="M781 4674 c0 -11 3 -14 6 -6 3 7 2 16 -1 19 -3 4 -6 -2 -5 -13z"/>
<path d="M9455 4661 c-9 -15 15 -25 28 -12 9 9 7 10 -7 5 -13 -5 -17 -4 -12 4
4 7 5 12 2 12 -3 0 -7 -4 -11 -9z"/>
<path d="M3060 4637 c-116 -55 -152 -164 -87 -263 40 -59 96 -88 159 -81 27 4
64 14 80 24 44 26 88 84 94 124 13 75 -36 167 -103 195 -39 17 -108 17 -143 1z
m163 -98 c53 -66 -26 -159 -136 -159 -53 0 -77 24 -77 75 0 36 50 90 96 105
43 13 96 4 117 -21z"/>
<path d="M8945 4612 c1 -15 6 -36 12 -46 9 -16 11 -17 16 -2 4 10 3 15 -2 12
-11 -7 -22 20 -15 38 3 8 1 16 -4 20 -5 3 -8 -7 -7 -22z"/>
<path d="M9469 4613 c-13 -16 -12 -17 4 -4 9 7 17 15 17 17 0 8 -8 3 -21 -13z"/>
<path d="M9480 4595 c-7 -9 -11 -17 -9 -20 3 -2 10 5 17 15 14 24 10 26 -8 5z"/>
<path d="M9417 4563 c3 -7 6 -13 8 -13 2 0 5 6 8 13 3 8 -1 14 -8 14 -7 0 -11
-6 -8 -14z"/>
<path d="M9030 4556 c0 -2 7 -9 15 -16 13 -11 14 -10 9 4 -5 14 -24 23 -24 12z"/>
<path d="M9438 4541 c-10 -10 -14 -22 -9 -29 5 -9 11 -5 20 14 14 32 11 37
-11 15z"/>
<path d="M8975 4539 c-4 -6 -5 -12 -2 -15 2 -3 7 2 10 11 7 17 1 20 -8 4z"/>
<path d="M9083 4492 c15 -15 27 -34 27 -42 0 -9 -5 -8 -16 6 -14 17 -15 17
-10 1 3 -10 2 -26 -3 -36 -9 -15 -5 -18 22 -18 18 0 26 2 20 5 -7 2 -13 8 -13
13 0 6 6 7 13 2 6 -4 19 -8 27 -8 8 0 16 -7 16 -15 1 -8 2 -21 3 -27 0 -7 5
-13 10 -13 16 0 8 43 -12 63 -10 10 -23 15 -29 11 -6 -4 -8 -3 -5 3 7 11 -52
83 -68 83 -5 0 3 -13 18 -28z"/>
<path d="M9338 4478 c-18 -41 -12 -68 14 -68 6 0 5 6 -2 15 -13 15 -5 55 14
67 7 5 7 11 1 17 -7 7 -16 -4 -27 -31z"/>
<path d="M9357 4453 c-4 -3 -7 -11 -7 -17 0 -6 5 -5 12 2 6 6 9 14 7 17 -3 3
-9 2 -12 -2z"/>
<path d="M9136 4394 c-4 -10 -1 -14 6 -12 15 5 23 28 10 28 -5 0 -13 -7 -16
-16z"/>
<path d="M10419 4379 c-30 -3 -79 -14 -109 -24 -66 -21 -383 -175 -376 -182 3
-3 24 6 48 19 38 22 96 49 253 118 79 35 162 53 265 60 101 6 103 6 39 10 -36
3 -90 2 -120 -1z"/>
<path d="M1175 4320 c3 -5 8 -10 11 -10 2 0 4 5 4 10 0 6 -5 10 -11 10 -5 0
-7 -4 -4 -10z"/>
<path d="M1570 4310 c-8 -5 -12 -12 -9 -15 4 -3 12 1 19 10 14 17 11 19 -10 5z"/>
<path d="M9060 4310 c0 -10 98 -150 143 -205 71 -86 110 -125 182 -184 101
-82 122 -94 143 -81 13 8 13 10 2 9 -32 -3 -39 2 -38 31 1 22 5 29 15 26 8 -4
11 -1 8 5 -4 6 -13 8 -21 5 -17 -7 -19 10 -1 18 6 3 2 3 -10 0 -21 -5 -22 -3
-12 25 17 48 8 63 -46 82 -28 10 -44 18 -37 19 7 0 40 -9 73 -20 34 -12 64
-19 66 -16 3 3 -13 10 -35 15 -118 32 -271 121 -367 215 -36 34 -65 59 -65 56z
m393 -373 c-3 -5 -10 -4 -15 1 -6 6 -7 16 -3 22 6 9 9 9 16 -1 4 -7 5 -17 2
-22z m-38 -15 c-3 -3 -11 0 -18 7 -9 10 -8 11 6 5 10 -3 15 -9 12 -12z m57
-15 c9 -10 14 -25 11 -33 -10 -26 -53 12 -53 47 0 14 23 6 42 -14z"/>
<path d="M9450 3895 c7 -9 15 -13 17 -11 7 7 -7 26 -19 26 -6 0 -6 -6 2 -15z"/>
<path d="M3338 4170 c-59 -39 -112 -70 -117 -70 -6 0 -25 25 -43 55 -36 60
-46 65 -73 35 -17 -18 -15 -22 41 -110 32 -49 62 -90 66 -90 7 0 70 39 221
137 l68 44 -18 31 c-10 17 -23 33 -28 34 -6 2 -58 -28 -117 -66z"/>
<path d="M986 4207 c3 -10 9 -15 12 -12 3 3 0 11 -7 18 -10 9 -11 8 -5 -6z"/>
<path d="M10225 4079 c-54 -20 -135 -95 -135 -125 0 -11 10 -3 28 22 41 56
145 106 228 108 34 0 57 4 50 8 -21 14 -120 6 -171 -13z"/>
<path d="M3468 4016 c-106 -87 -126 -109 -134 -152 -9 -47 28 -118 79 -155 46
-33 62 -36 76 -12 7 14 0 25 -35 56 -36 32 -44 45 -44 73 0 49 20 51 65 8 42
-39 91 -64 125 -64 66 0 121 73 100 134 -13 40 -56 82 -93 91 -21 6 -25 10
-17 21 8 9 8 19 1 32 -24 44 -33 42 -123 -32z m136 -77 c51 -40 19 -97 -51
-90 -15 1 -73 50 -73 62 0 12 61 49 81 49 9 0 28 -9 43 -21z"/>
<path d="M10945 4049 c-4 -6 -5 -12 -2 -15 2 -3 7 2 10 11 7 17 1 20 -8 4z"/>
<path d="M1283 4015 c0 -8 4 -12 9 -9 5 3 6 10 3 15 -9 13 -12 11 -12 -6z"/>
<path d="M1266 3987 c3 -10 9 -15 12 -12 3 3 0 11 -7 18 -10 9 -11 8 -5 -6z"/>
<path d="M1316 3947 c3 -10 9 -15 12 -12 3 3 0 11 -7 18 -10 9 -11 8 -5 -6z"/>
<path d="M9530 3822 c0 -10 50 -35 57 -28 2 2 -5 7 -16 11 -12 3 -21 11 -21
16 0 5 -4 9 -10 9 -5 0 -10 -4 -10 -8z"/>
<path d="M3665 3670 l-119 -120 89 -90 c50 -49 95 -90 102 -90 6 0 18 8 25 18
7 9 44 45 81 80 62 59 70 63 108 61 31 -3 44 1 55 16 21 28 17 41 -17 57 -59
29 -115 9 -207 -77 l-59 -54 -34 35 -33 34 99 100 99 99 -24 26 c-13 14 -28
25 -34 25 -6 0 -65 -54 -131 -120z"/>
<path d="M8620 3725 c-27 -29 -36 -13 113 -194 59 -72 105 -131 103 -131 -2 0
-36 22 -77 48 -41 27 -116 72 -168 102 -96 54 -110 56 -134 19 -9 -14 33 -119
124 -314 12 -27 25 -54 27 -60 2 -5 -59 53 -137 130 l-140 139 -31 -29 -31
-30 78 -73 c43 -40 121 -115 173 -167 l95 -95 43 38 44 37 -37 85 c-21 47 -55
122 -76 168 -22 46 -39 85 -39 88 0 3 12 -3 28 -14 15 -11 87 -54 161 -96
l134 -77 38 37 c22 21 39 41 39 44 0 5 -41 57 -98 125 -10 11 -57 71 -106 133
-48 61 -91 112 -95 112 -4 0 -18 -11 -31 -25z"/>
<path d="M1310 3736 c0 -2 7 -7 16 -10 8 -3 12 -2 9 4 -6 10 -25 14 -25 6z"/>
<path d="M4008 3457 c-96 -59 -135 -177 -82 -251 27 -37 98 -70 135 -62 43 8
27 -12 -28 -36 -53 -23 -84 -19 -165 26 l-57 31 -23 -22 c-27 -27 -24 -31 65
-77 53 -28 80 -36 120 -36 90 1 173 56 239 159 58 91 59 166 4 229 -56 64
-141 80 -208 39z m149 -69 c61 -57 -15 -198 -107 -198 -12 0 -32 12 -46 27
-21 23 -24 34 -19 62 8 44 39 88 79 112 40 25 64 24 93 -3z"/>
<path d="M8147 3332 c-15 -9 -25 -22 -23 -28 10 -26 192 -273 201 -273 6 0 22
10 37 22 l28 23 -96 134 c-52 74 -101 136 -107 137 -7 2 -24 -5 -40 -15z"/>
<path d="M1929 3307 c-27 -20 -41 -58 -35 -89 5 -26 3 -29 -12 -23 -44 19 -71
17 -96 -8 -34 -34 -33 -70 4 -143 42 -81 86 -132 105 -119 8 6 74 50 147 99
73 49 135 91 136 92 10 7 -59 105 -105 152 -45 45 -57 52 -90 52 -21 0 -45 -6
-54 -13z m102 -58 c20 -10 79 -85 79 -99 0 -8 -92 -70 -103 -70 -12 0 -67 105
-67 127 0 44 47 66 91 42z m-124 -114 c11 -8 30 -30 41 -49 l20 -34 -44 -31
c-25 -17 -46 -31 -48 -31 -7 0 -44 62 -54 90 -14 38 2 70 35 70 16 0 38 -7 50
-15z"/>
<path d="M10820 3286 c0 -2 8 -10 18 -17 15 -13 16 -12 3 4 -13 16 -21 21 -21
13z"/>
<path d="M8028 3244 c-27 -14 -28 -16 -22 -87 6 -62 4 -75 -13 -96 -11 -13
-24 -21 -29 -18 -6 3 -23 31 -38 61 -16 31 -33 56 -38 56 -7 0 -25 -10 -66
-36 -2 -1 11 -27 28 -58 35 -61 34 -86 -2 -86 -26 0 -51 13 -101 53 -35 28
-36 28 -69 11 -18 -9 -35 -18 -37 -20 -2 -2 11 -16 29 -31 64 -55 113 -83 145
-83 l31 0 -17 -87 c-10 -49 -16 -89 -14 -91 7 -7 42 9 63 29 19 17 22 30 22
100 0 95 9 98 57 18 33 -56 39 -59 78 -33 l24 16 -36 64 c-19 35 -30 64 -24
64 5 0 41 -16 80 -35 38 -19 74 -35 81 -35 16 0 70 29 70 38 0 4 -36 21 -81
37 -44 16 -83 33 -85 37 -3 4 3 19 12 33 14 21 16 39 10 95 -6 71 -14 100 -25
100 -3 -1 -18 -7 -33 -16z"/>
<path d="M4450 3047 c-41 -78 -76 -147 -78 -153 -2 -6 17 -21 41 -34 l43 -23
80 53 c43 29 98 68 122 87 44 36 55 29 23 -15 -22 -33 -101 -176 -101 -185 0
-11 60 -38 71 -31 5 3 23 31 38 62 15 32 49 97 75 145 27 48 47 89 45 91 -2 2
-23 13 -47 25 l-42 22 -63 -42 c-34 -23 -88 -62 -120 -86 -31 -23 -60 -43 -63
-43 -4 0 2 12 12 28 21 31 114 201 114 207 0 6 -57 35 -67 35 -4 0 -42 -64
-83 -143z"/>
<path d="M2100 2926 c-74 -57 -136 -108 -137 -113 -2 -6 4 -19 14 -31 18 -21
18 -21 122 59 58 44 123 95 145 113 41 34 41 34 22 55 -11 11 -22 21 -25 20
-3 0 -67 -46 -141 -103z"/>
<path d="M10146 3013 c-6 -14 -5 -15 5 -6 7 7 10 15 7 18 -3 3 -9 -2 -12 -12z"/>
<path d="M8400 3012 c-57 -19 -34 -103 24 -88 27 7 41 35 31 65 -6 20 -31 31
-55 23z"/>
<path d="M10104 3000 c0 -13 4 -16 10 -10 7 7 7 13 0 20 -6 6 -10 3 -10 -10z"/>
<path d="M4847 2853 c-31 -82 -59 -155 -62 -163 -4 -12 8 -21 45 -34 l52 -19
41 39 c23 21 73 68 111 104 37 36 67 61 65 55 -2 -5 -23 -58 -46 -117 -24 -58
-43 -113 -43 -120 0 -13 59 -42 68 -34 4 5 106 269 116 302 5 18 0 24 -39 39
-53 20 -34 31 -182 -103 -51 -46 -93 -82 -93 -79 0 2 13 33 29 68 15 35 38 90
50 122 l21 58 -35 14 c-19 8 -36 15 -38 15 -2 0 -29 -66 -60 -147z"/>
<path d="M7538 2987 c-33 -13 -34 -21 -8 -82 11 -26 20 -53 20 -60 0 -12 -94
-55 -120 -55 -4 0 -18 30 -30 66 -17 49 -26 64 -37 60 -8 -4 -26 -9 -39 -12
-13 -3 -24 -12 -24 -20 0 -17 109 -296 120 -308 7 -7 54 5 77 19 2 1 -6 26
-18 56 -11 30 -21 58 -22 62 -3 10 113 58 123 52 5 -3 16 -28 25 -55 9 -27 20
-52 25 -55 5 -3 25 1 45 9 35 15 36 15 22 48 -7 18 -36 90 -63 161 -27 70 -53
127 -59 126 -5 -1 -22 -6 -37 -12z"/>
<path d="M6743 2902 c-9 -6 -9 -26 -1 -85 12 -81 8 -98 -16 -78 -8 7 -36 13
-61 13 -137 0 -201 -164 -114 -295 31 -47 67 -67 123 -67 34 0 93 32 102 55 8
21 21 19 27 -5 4 -15 14 -20 41 -20 42 0 40 -6 22 120 -8 52 -22 157 -31 233
l-18 137 -31 0 c-17 0 -36 -4 -43 -8z m-1 -235 c28 -26 44 -111 28 -152 -26
-67 -117 -70 -151 -5 -31 57 -18 157 23 173 32 13 76 6 100 -16z"/>
<path d="M2279 2842 c-221 -191 -209 -178 -193 -201 21 -29 28 -27 84 20 27
23 53 39 58 38 5 -2 32 -31 61 -63 l52 -60 -56 -50 -55 -51 20 -24 20 -23 135
116 c74 64 135 120 135 124 0 4 -7 18 -16 30 l-16 23 -65 -57 c-64 -57 -65
-57 -82 -37 -9 11 -34 42 -56 68 l-40 48 63 56 63 57 -23 21 -23 21 -66 -56z"/>
<path d="M10398 2883 c7 -3 16 -2 19 1 4 3 -2 6 -13 5 -11 0 -14 -3 -6 -6z"/>
<path d="M5681 2817 c-15 -88 -14 -117 4 -117 18 0 18 4 -1 -153 -8 -71 -14
-130 -12 -132 4 -4 201 -25 233 -25 21 0 25 5 25 33 1 90 57 237 91 237 20 0
27 25 31 115 l3 60 -32 3 c-31 3 -31 3 -38 -53 l-7 -55 -47 5 c-25 4 -75 9
-111 13 l-65 7 -3 56 c-3 56 -12 68 -53 69 -4 0 -12 -28 -18 -63z m227 -143
c9 -3 8 -13 -7 -43 -12 -22 -26 -69 -33 -105 l-13 -66 -42 0 c-23 0 -44 4 -47
8 -5 8 11 181 19 209 4 11 84 9 123 -3z"/>
<path d="M5296 2839 c-13 -40 -78 -320 -75 -324 2 -2 21 -6 41 -10 l37 -7 17
61 c10 34 23 61 30 61 7 0 36 -5 64 -12 l52 -12 -5 -35 c-3 -20 -9 -50 -12
-68 -7 -30 -5 -32 26 -41 19 -5 38 -6 42 -2 14 13 89 322 80 331 -5 5 -24 10
-43 11 l-34 3 -14 -60 c-7 -33 -17 -64 -21 -68 -8 -8 -131 20 -131 30 0 2 7
33 16 69 9 36 15 66 13 68 -2 3 -21 7 -41 11 -28 5 -39 4 -42 -6z"/>
<path d="M7084 2836 c-17 -8 -38 -24 -47 -36 -13 -18 -16 -19 -24 -7 -11 20
-79 8 -76 -14 5 -40 63 -231 76 -249 42 -60 123 -70 206 -24 51 27 62 49 39
72 -8 8 -18 6 -38 -8 -40 -28 -102 -36 -123 -15 -27 26 -20 39 31 57 50 18
107 66 118 100 11 36 -5 86 -37 112 -34 29 -76 33 -125 12z m73 -86 c16 -32 1
-57 -50 -85 -44 -24 -58 -14 -60 38 -1 48 27 79 67 75 21 -2 35 -11 43 -28z"/>
<path d="M4382 2764 c-12 -8 -22 -21 -22 -29 0 -19 38 -29 55 -15 8 6 24 10
37 8 17 -2 24 -10 26 -33 3 -27 25 -55 43 -55 14 0 20 59 9 80 -15 28 -69 60
-100 60 -14 0 -36 -7 -48 -16z"/>
<path d="M1860 2745 c-26 -32 13 -81 48 -59 34 22 22 74 -18 74 -10 0 -23 -7
-30 -15z"/>
<path d="M6180 2711 c-51 -27 -77 -60 -91 -111 -27 -100 18 -194 106 -224 145
-50 275 80 230 230 -31 105 -150 155 -245 105z m139 -78 c20 -23 23 -34 19
-94 -4 -82 -24 -109 -77 -109 -20 0 -43 6 -51 13 -39 31 -51 111 -25 172 24
60 88 68 134 18z"/>
<path d="M2544 2531 c-49 -22 -88 -61 -116 -115 -55 -107 40 -246 168 -246 41
0 111 37 146 76 26 30 48 89 48 130 0 114 -142 204 -246 155z m129 -52 c64
-33 76 -110 27 -177 -62 -86 -169 -99 -216 -27 -60 92 90 255 189 204z"/>
<path d="M2911 2363 c-32 -37 -47 -61 -41 -67 6 -6 10 -15 10 -21 0 -6 -43
-64 -95 -129 -53 -66 -94 -120 -93 -121 2 -1 43 -34 92 -74 48 -39 92 -71 96
-69 4 2 27 27 50 56 58 75 156 145 193 139 25 -3 35 4 77 57 35 45 45 64 38
74 -17 20 -34 14 -69 -27 l-34 -40 -97 77 c-53 42 -97 81 -98 86 0 4 14 26 31
47 25 32 29 42 19 54 -7 8 -16 15 -20 15 -5 0 -31 -26 -59 -57z m98 -184 l63
-51 -50 -29 c-27 -15 -74 -55 -104 -89 l-55 -61 -44 37 c-24 20 -43 41 -41 46
4 14 153 198 161 198 3 0 35 -23 70 -51z"/>
<path d="M3461 1979 l-54 -81 -12 36 c-25 73 -70 100 -155 94 -63 -5 -95 -24
-141 -86 -62 -85 -60 -173 6 -231 40 -35 70 -45 120 -39 26 3 34 1 30 -9 -3
-7 -8 -19 -11 -27 -6 -15 33 -43 43 -32 4 3 68 99 144 213 l139 208 -23 17
c-12 10 -24 18 -27 17 -3 0 -29 -36 -59 -80z m-131 -28 c14 -10 29 -35 34 -55
8 -32 6 -45 -14 -82 -48 -91 -113 -124 -179 -90 -89 46 -54 194 59 248 22 11
71 0 100 -21z"/>
<path d="M9238 1983 c7 -3 16 -2 19 1 4 3 -2 6 -13 5 -11 0 -14 -3 -6 -6z"/>
<path d="M8911 1844 c0 -11 3 -14 6 -6 3 7 2 16 -1 19 -3 4 -6 -2 -5 -13z"/>
<path d="M3545 1782 c-37 -23 -83 -77 -97 -111 -14 -39 -12 -115 6 -149 32
-61 126 -110 189 -97 90 19 160 107 161 204 1 65 -14 95 -70 137 -48 37 -143
45 -189 16z m166 -61 c74 -75 -1 -243 -108 -243 -111 0 -136 141 -43 234 32
32 44 38 80 38 33 0 48 -6 71 -29z"/>
<path d="M3886 1632 c-11 -82 22 -192 56 -192 24 0 -9 -19 -97 -55 -49 -20
-92 -38 -93 -40 -2 -2 10 -11 27 -19 29 -16 33 -15 127 30 53 24 100 44 104
42 5 -2 -5 -36 -22 -76 -17 -40 -29 -74 -27 -76 2 -3 16 -7 30 -11 25 -6 28
-1 97 157 67 151 71 164 55 176 -30 21 -45 9 -74 -58 -15 -35 -32 -66 -38 -68
-6 -2 -27 12 -46 31 -33 33 -35 38 -35 106 0 68 -1 71 -29 85 l-29 15 -6 -47z"/>
<path d="M8450 1586 c0 -2 8 -10 18 -17 15 -13 16 -12 3 4 -13 16 -21 21 -21
13z"/>
<path d="M4403 1435 c-62 -26 -73 -99 -22 -146 21 -20 26 -29 16 -29 -29 0
-65 -22 -76 -47 -17 -37 -13 -59 15 -92 48 -57 194 -80 194 -30 0 16 -7 19
-49 19 -57 0 -101 28 -101 65 0 42 41 56 125 43 11 -2 21 3 23 13 2 11 -15 25
-53 44 -54 26 -56 28 -53 63 2 28 9 40 28 49 32 15 92 3 132 -27 31 -23 48
-19 48 9 0 25 -88 70 -147 75 -27 3 -62 -1 -80 -9z"/>
<path d="M9045 1405 c-19 -15 -19 -16 4 -5 19 10 26 9 33 -1 8 -12 9 -11 6 0
-6 21 -21 23 -43 6z"/>
<path d="M4710 1339 c0 -22 5 -24 50 -26 93 -4 150 -50 150 -121 0 -16 -2 -31
-5 -34 -3 -3 -60 8 -127 24 -138 32 -138 33 -138 -47 0 -99 56 -155 156 -155
68 0 111 29 147 99 37 74 37 141 0 199 -34 53 -80 75 -165 80 -66 4 -68 4 -68
-19z m93 -210 c48 -12 87 -26 87 -31 0 -22 -68 -78 -94 -78 -34 0 -82 24 -90
45 -8 23 -8 85 2 85 4 0 46 -10 95 -21z"/>
<path d="M8486 1343 c-6 -14 -5 -15 5 -6 7 7 10 15 7 18 -3 3 -9 -2 -12 -12z"/>
<path d="M7430 1340 c0 -5 5 -10 11 -10 5 0 7 5 4 10 -3 6 -8 10 -11 10 -2 0
-4 -4 -4 -10z"/>
<path d="M5115 1251 c-77 -35 -109 -145 -63 -218 21 -36 103 -83 143 -83 11 0
31 -3 44 -7 22 -6 23 -9 17 -65 -3 -33 -8 -63 -11 -68 -3 -4 -21 -4 -41 0 -21
5 -70 12 -111 15 -73 7 -73 7 -73 -17 0 -24 3 -25 128 -43 70 -10 132 -20 139
-22 6 -2 14 8 17 24 9 43 66 441 66 462 0 40 -181 56 -255 22z m174 -40 c21
-14 -7 -214 -31 -219 -28 -5 -96 17 -123 41 -53 46 -49 133 8 167 34 21 120
27 146 11z"/>
<path d="M8053 1178 c-20 -26 -26 -41 -15 -34 12 7 36 46 29 46 -3 0 -9 -6
-14 -12z"/>
<path d="M5881 1074 c0 -11 3 -14 6 -6 3 7 2 16 -1 19 -3 4 -6 -2 -5 -13z"/>
</g>
</svg>
