<?xml version="1.0" encoding="UTF-8" standalone="no"?>
<!-- Generator: Adobe Illustrator 23.0.1, SVG Export Plug-In . SVG Version: 6.00 Build 0)  -->

<svg
   version="1.1"
   id="Layer_1"
   x="0px"
   y="0px"
   viewBox="0 0 47 44"
   style="enable-background:new 0 0 47 44;"
   xml:space="preserve"
   sodipodi:docname="logo1.svg"
   inkscape:version="1.1.2 (b8e25be8, 2022-02-05)"
   xmlns:inkscape="http://www.inkscape.org/namespaces/inkscape"
   xmlns:sodipodi="http://sodipodi.sourceforge.net/DTD/sodipodi-0.dtd"
   xmlns="http://www.w3.org/2000/svg"
   xmlns:svg="http://www.w3.org/2000/svg"><defs
   id="defs91"><linearGradient
     id="SVGID_2_"
     gradientUnits="userSpaceOnUse"
     x1="0"
     y1="769.1"
     x2="47"
     y2="769.1"
     gradientTransform="matrix(1 0 0 1 0 -754)">
	<stop
   offset="0"
   style="stop-color:#6366F1"
   id="stop1682" />
	<stop
   offset="0.5"
   style="stop-color:#8B5CF6"
   id="stop1684" />
	<stop
   offset="1"
   style="stop-color:#D946EF"
   id="stop1686" />
</linearGradient></defs><sodipodi:namedview
   id="namedview89"
   pagecolor="#ffffff"
   bordercolor="#666666"
   borderopacity="1.0"
   inkscape:pageshadow="2"
   inkscape:pageopacity="0.0"
   inkscape:pagecheckerboard="0"
   showgrid="false"
   inkscape:zoom="15.852256"
   inkscape:cx="27.157017"
   inkscape:cy="22.015793"
   inkscape:window-width="1792"
   inkscape:window-height="1092"
   inkscape:window-x="0"
   inkscape:window-y="28"
   inkscape:window-maximized="0"
   inkscape:current-layer="Layer_1" />
<style
   type="text/css"
   id="style2">
	.st0{fill:url(#SVGID_1_);}
	.st1{fill:url(#SVGID_2_);}
	.st2{fill:url(#SVGID_3_);}
	.st3{fill:url(#SVGID_4_);}
	.st4{fill:url(#SVGID_5_);}
	.st5{fill:url(#SVGID_6_);}
	.st6{fill-opacity:0.17;}
	.st7{fill-opacity:0.1;}
	.st8{fill-opacity:0.23;}
	.st9{fill:#C0C0C0;fill-opacity:5.000000e-02;}
	.st10{fill:#FFFFFF;fill-opacity:0.15;}
	.st11{fill-rule:evenodd;clip-rule:evenodd;fill:#FFFFFF;fill-opacity:0.15;}
	.st12{fill:#FFFFFF;}
</style>
<linearGradient
   id="SVGID_1_"
   gradientUnits="userSpaceOnUse"
   x1="0"
   y1="765"
   x2="47"
   y2="765"
   gradientTransform="matrix(1 0 0 1 0 -754)">
	<stop
   offset="0"
   style="stop-color:#6366F1"
   id="stop4" />
	<stop
   offset="0.5"
   style="stop-color:#8B5CF6"
   id="stop6" />
	<stop
   offset="1"
   style="stop-color:#D946EF"
   id="stop8" />
</linearGradient>
<path
   class="st0"
   d="M10.2,22l-6.1-9.7L23,0l-0.5,10.7L10.2,22z"
   id="path11"
   style="fill:#0055ad;fill-opacity:1" />
<linearGradient
   id="SVGID_2_-7"
   gradientUnits="userSpaceOnUse"
   x1="0"
   y1="769.1"
   x2="47"
   y2="769.1"
   gradientTransform="matrix(1 0 0 1 0 -754)">
	<stop
   offset="0"
   style="stop-color:#6366F1"
   id="stop13" />
	<stop
   offset="0.5"
   style="stop-color:#8B5CF6"
   id="stop15" />
	<stop
   offset="1"
   style="stop-color:#D946EF"
   id="stop17" />
</linearGradient>
<path
   class="st1"
   d="M22.5,10.7L23,0l19.4,8.7l-4.1,17.4l-26.1,4.1l-2-8.2L22.5,10.7z"
   id="path20"
   style="fill:#005bbb;fill-opacity:1" />
<linearGradient
   id="SVGID_3_"
   gradientUnits="userSpaceOnUse"
   x1="0"
   y1="789.05"
   x2="47"
   y2="789.05"
   gradientTransform="matrix(1 0 0 1 0 -754)">
	<stop
   offset="0"
   style="stop-color:#6366F1"
   id="stop22" />
	<stop
   offset="0.5"
   style="stop-color:#8B5CF6"
   id="stop24" />
	<stop
   offset="1"
   style="stop-color:#D946EF"
   id="stop26" />
</linearGradient>
<path
   class="st2"
   d="M31.2,44L12.3,30.2l26.1-4.1l4.6,4.6L31.2,44z"
   id="path29"
   style="fill:#f5ce00;fill-opacity:0.89411765" />
<linearGradient
   id="SVGID_4_"
   gradientUnits="userSpaceOnUse"
   x1="0"
   y1="773.7"
   x2="47"
   y2="773.7"
   gradientTransform="matrix(1 0 0 1 0 -754)">
	<stop
   offset="0"
   style="stop-color:#6366F1"
   id="stop31" />
	<stop
   offset="0.5"
   style="stop-color:#8B5CF6"
   id="stop33" />
	<stop
   offset="1"
   style="stop-color:#D946EF"
   id="stop35" />
</linearGradient>
<path
   class="st3"
   d="M38.3,26.1l4.6,4.6L47,17.9l-4.6-9.2L38.3,26.1z"
   id="path38"
   style="fill:#ffd500;fill-opacity:0.89411765" />
<linearGradient
   id="SVGID_5_"
   gradientUnits="userSpaceOnUse"
   x1="0"
   y1="789.3"
   x2="47"
   y2="789.3"
   gradientTransform="matrix(1 0 0 1 0 -754)">
	<stop
   offset="0"
   style="stop-color:#6366F1"
   id="stop40" />
	<stop
   offset="0.5"
   style="stop-color:#8B5CF6"
   id="stop42" />
	<stop
   offset="1"
   style="stop-color:#D946EF"
   id="stop44" />
</linearGradient>
<path
   class="st4"
   d="M12.3,30.2L31.2,44l-18.9-2.6L0,26.6L12.3,30.2z"
   id="path47"
   style="fill:#ebc400;fill-opacity:0.89411765" />
<linearGradient
   id="SVGID_6_"
   gradientUnits="userSpaceOnUse"
   x1="0"
   y1="775.25"
   x2="47"
   y2="775.25"
   gradientTransform="matrix(1 0 0 1 0 -754)">
	<stop
   offset="0"
   style="stop-color:#6366F1"
   id="stop49" />
	<stop
   offset="0.5"
   style="stop-color:#8B5CF6"
   id="stop51" />
	<stop
   offset="1"
   style="stop-color:#D946EF"
   id="stop53" />
</linearGradient>
<path
   class="st5"
   d="M4.1,12.3L0,26.6l12.3,3.6l-2-8.2L4.1,12.3z"
   id="path56"
   style="fill:#0052a8;fill-opacity:1" />




<path
   class="st10"
   d="M10.2,22l-6.1-9.7L23,0l-0.5,10.7L10.2,22z"
   id="path66"
   style="fill:#005bbb;fill-opacity:0" />
<path
   class="st11"
   d="M10.2,22l12.3-11.3L23,0L4.1,12.3L10.2,22z M10.3,21.5l11.9-10.9l0.5-10L4.5,12.4L10.3,21.5z"
   id="path68" />
<path
   class="st11"
   d="M22.8,10.9L10.6,22.1l1.9,7.7l25.6-4l4-16.9L23.3,0.5L22.8,10.9z M22.5,10.7L10.2,22l2,8.2l26.1-4.1l4.1-17.4  L23,0L22.5,10.7z"
   id="path70" />
<path
   class="st11"
   d="M31.1,43.6l11.4-12.9l-4.3-4.3l-25.2,4L31.1,43.6z M31.2,44l11.7-13.3l-4.6-4.6l-26.1,4.1L31.2,44z"
   id="path72" />
<path
   class="st11"
   d="M42.9,30.7L47,17.9l-4.6-9.2l-4.1,17.4L42.9,30.7z M38.7,26l4.1,4.1l3.9-12.2l-4.2-8.3L38.7,26z"
   id="path74" />
<path
   class="st11"
   d="M12.1,30.5L0.9,27.2l11.5,14L30,43.5L12.1,30.5z M12.3,30.2L0,26.6l12.3,14.8L31.2,44L12.3,30.2z"
   id="path76" />
<path
   class="st11"
   d="M0.4,26.4l11.5,3.3L10,22.1L4.2,13L0.4,26.4z M0,26.6l12.3,3.6l-2-8.2l-6.1-9.7L0,26.6z"
   id="path78" />




</svg>
